<svg width="2524" height="2279" viewBox="0 0 2524 2279" fill="none" xmlns="http://www.w3.org/2000/svg">
<path d="M2388.38 2278.38C2363.51 2278.38 2341.24 2272.59 2321.58 2261.02C2301.92 2249.46 2286.59 2233.55 2275.6 2213.31C2264.61 2192.49 2259.12 2169.36 2259.12 2143.91C2259.12 2119.04 2264.61 2096.77 2275.6 2077.11C2286.59 2057.44 2301.92 2042.12 2321.58 2031.13C2341.24 2019.56 2363.51 2013.78 2388.38 2013.78C2404.57 2013.78 2419.03 2016.67 2431.76 2022.45C2444.48 2027.66 2455.47 2034.6 2464.72 2043.27C2465.88 2035.18 2469.35 2029.1 2475.13 2025.06C2480.92 2020.43 2487.28 2018.12 2494.22 2018.12C2501.74 2018.12 2508.39 2020.72 2514.17 2025.92C2520.53 2030.55 2523.72 2037.78 2523.72 2047.61V2251.48C2523.72 2260.16 2520.53 2266.81 2514.17 2271.44C2508.39 2276.06 2501.74 2278.38 2494.22 2278.38C2486.7 2278.38 2479.76 2276.06 2473.4 2271.44C2467.61 2266.81 2464.72 2260.16 2464.72 2251.48V2248.01C2455.47 2257.27 2444.48 2264.49 2431.76 2269.7C2419.03 2275.48 2404.57 2278.38 2388.38 2278.38ZM2393.58 2224.59C2415.56 2224.59 2432.91 2217.36 2445.64 2202.9C2458.36 2187.86 2464.72 2168.2 2464.72 2143.91C2464.72 2120.77 2458.36 2102.27 2445.64 2088.39C2432.91 2074.5 2415.56 2067.56 2393.58 2067.56C2371.03 2067.56 2352.81 2074.5 2338.93 2088.39C2325.05 2102.27 2318.11 2120.77 2318.11 2143.91C2318.11 2168.2 2325.05 2187.86 2338.93 2202.9C2352.81 2217.36 2371.03 2224.59 2393.58 2224.59Z" fill="white"/>
<path d="M2123.4 2141.3V2251.48C2123.4 2260.16 2120.22 2266.81 2113.86 2271.44C2108.08 2276.06 2101.43 2278.38 2093.91 2278.38C2086.39 2278.38 2079.45 2276.06 2073.09 2271.44C2067.3 2266.81 2064.41 2260.16 2064.41 2251.48V2047.61C2064.41 2037.78 2067.3 2030.55 2073.09 2025.92C2079.45 2020.72 2086.39 2018.12 2093.91 2018.12C2101.43 2018.12 2108.08 2020.72 2113.86 2025.92C2120.22 2030.55 2123.4 2037.78 2123.4 2047.61V2051.08C2131.5 2040.09 2141.91 2031.13 2154.64 2024.19C2167.94 2017.25 2181.82 2013.78 2196.28 2013.78C2203.22 2013.78 2210.16 2014.64 2217.1 2016.38C2224.04 2018.12 2229.24 2021.59 2232.71 2026.79C2236.18 2032 2237.92 2037.78 2237.92 2044.14C2237.92 2051.66 2235.32 2058.6 2230.11 2064.96C2225.48 2070.75 2218.54 2073.64 2209.29 2073.64C2205.24 2073.64 2200.9 2073.06 2196.28 2071.9C2192.23 2070.75 2187.02 2070.17 2180.66 2070.17C2163.89 2070.17 2150.01 2076.53 2139.02 2089.25C2128.61 2101.98 2123.4 2119.33 2123.4 2141.3Z" fill="white"/>
<path d="M1886.52 2278.37C1843.14 2278.37 1809.31 2265.94 1785.01 2241.07C1760.72 2216.2 1748.58 2182.66 1748.58 2140.44C1748.58 2103.42 1760.72 2073.06 1785.01 2049.34C1809.88 2025.63 1841.69 2013.78 1880.44 2013.78C1918.04 2013.78 1948.11 2024.76 1970.67 2046.74C1993.22 2068.14 2004.5 2094.75 2004.5 2126.56C2004.5 2139.28 2001.03 2148.82 1994.09 2155.18C1987.73 2161.55 1979.34 2164.73 1968.93 2164.73H1817.98C1812.2 2164.73 1810.17 2167.91 1811.91 2174.27C1816.53 2190.46 1825.79 2203.19 1839.67 2212.44C1854.13 2221.12 1870.32 2225.45 1888.25 2225.45C1901.55 2225.45 1914.28 2223.72 1926.42 2220.25C1939.15 2216.78 1950.14 2211.57 1959.39 2204.63C1962.28 2202.32 1966.04 2201.16 1970.67 2201.16C1977.03 2201.16 1982.81 2204.06 1988.02 2209.84C1993.22 2215.04 1995.83 2221.41 1995.83 2228.92C1995.83 2232.39 1995.25 2235.86 1994.09 2239.33C1992.93 2242.81 1990.33 2246.28 1986.28 2249.75C1971.25 2260.73 1955.05 2268.25 1937.7 2272.3C1920.93 2276.35 1903.87 2278.37 1886.52 2278.37ZM1936.83 2119.62C1940.3 2119.62 1942.04 2117.88 1942.04 2114.41C1942.04 2101.11 1935.97 2089.54 1923.82 2079.71C1912.25 2069.88 1897.79 2064.96 1880.44 2064.96C1865.41 2064.96 1850.95 2069.01 1837.07 2077.11C1823.76 2085.2 1815.67 2095.9 1812.78 2109.2C1812.78 2109.2 1812.78 2109.49 1812.78 2110.07C1812.2 2112.39 1811.91 2114.41 1811.91 2116.15C1812.49 2117.88 1815.09 2118.75 1819.72 2118.75L1936.83 2119.62ZM1834.46 1942.64L1914.28 1879.31C1916.59 1877.57 1919.48 1875.84 1922.95 1874.1C1927 1871.79 1931.05 1870.63 1935.1 1870.63C1942.04 1870.63 1948.11 1873.24 1953.32 1878.44C1958.52 1883.65 1961.12 1890.3 1961.12 1898.39C1961.12 1907.07 1957.36 1913.72 1949.85 1918.35L1857.89 1973C1856.15 1973.58 1854.42 1974.45 1852.68 1975.6C1851.53 1976.18 1849.5 1976.47 1846.61 1976.47C1833.31 1976.47 1826.66 1970.4 1826.66 1958.25C1826.66 1951.89 1829.26 1946.69 1834.46 1942.64Z" fill="white"/>
<path d="M1595.22 2278.38C1586.55 2278.38 1578.45 2276.35 1570.93 2272.3C1563.41 2268.83 1557.92 2263.34 1554.45 2255.82L1468.56 2053.68C1467.41 2049.06 1466.83 2045.59 1466.83 2043.27C1466.83 2034.02 1470.01 2026.79 1476.37 2021.59C1482.73 2016.38 1489.67 2013.78 1497.19 2013.78C1502.4 2013.78 1507.31 2015.22 1511.94 2018.12C1517.15 2021.01 1520.9 2025.63 1523.22 2032L1583.95 2189.02C1586.84 2194.8 1590.6 2197.69 1595.22 2197.69C1601.01 2197.69 1604.77 2194.8 1606.5 2189.02L1666.36 2032C1668.67 2025.63 1672.14 2021.01 1676.77 2018.12C1681.98 2015.22 1687.18 2013.78 1692.39 2013.78C1700.48 2013.78 1707.42 2016.38 1713.21 2021.59C1719.57 2026.79 1722.75 2033.73 1722.75 2042.41C1722.75 2045.3 1722.17 2049.06 1721.02 2053.68L1636 2255.82C1632.53 2263.34 1627.03 2268.83 1619.51 2272.3C1612 2276.35 1603.9 2278.38 1595.22 2278.38Z" fill="white"/>
<path d="M1284.28 2278.38C1259.41 2278.38 1237.14 2272.59 1217.48 2261.02C1197.82 2249.46 1182.49 2233.55 1171.5 2213.31C1160.51 2192.49 1155.02 2169.36 1155.02 2143.91C1155.02 2119.04 1160.51 2096.77 1171.5 2077.11C1182.49 2057.44 1197.82 2042.12 1217.48 2031.13C1237.14 2019.56 1259.41 2013.78 1284.28 2013.78C1300.47 2013.78 1314.93 2016.67 1327.66 2022.45C1340.38 2027.66 1351.37 2034.6 1360.62 2043.27C1361.78 2035.18 1365.25 2029.1 1371.03 2025.06C1376.82 2020.43 1383.18 2018.12 1390.12 2018.12C1397.64 2018.12 1404.29 2020.72 1410.07 2025.92C1416.43 2030.55 1419.62 2037.78 1419.62 2047.61V2251.48C1419.62 2260.16 1416.43 2266.81 1410.07 2271.44C1404.29 2276.06 1397.64 2278.38 1390.12 2278.38C1382.6 2278.38 1375.66 2276.06 1369.3 2271.44C1363.51 2266.81 1360.62 2260.16 1360.62 2251.48V2248.01C1351.37 2257.27 1340.38 2264.49 1327.66 2269.7C1314.93 2275.48 1300.47 2278.38 1284.28 2278.38ZM1289.49 2224.59C1311.46 2224.59 1328.81 2217.36 1341.54 2202.9C1354.26 2187.86 1360.62 2168.2 1360.62 2143.91C1360.62 2120.77 1354.26 2102.27 1341.54 2088.39C1328.81 2074.5 1311.46 2067.56 1289.49 2067.56C1266.93 2067.56 1248.71 2074.5 1234.83 2088.39C1220.95 2102.27 1214.01 2120.77 1214.01 2143.91C1214.01 2168.2 1220.95 2187.86 1234.83 2202.9C1248.71 2217.36 1266.93 2224.59 1289.49 2224.59Z" fill="white"/>
<path d="M716.996 2278.38C709.478 2278.38 702.537 2276.06 696.175 2271.44C690.392 2266.81 687.5 2260.16 687.5 2251.48V2047.61C687.5 2037.78 690.392 2030.55 696.175 2025.92C702.537 2020.72 709.478 2018.12 716.996 2018.12C722.78 2018.12 728.274 2019.56 733.479 2022.45C738.685 2024.77 742.444 2029.1 744.757 2035.47C745.914 2038.94 746.492 2042.12 746.492 2045.01C755.168 2035.75 766.446 2028.24 780.326 2022.45C794.207 2016.67 807.798 2013.78 821.1 2013.78C858.693 2013.78 886.455 2028.81 904.384 2058.89C911.324 2046.74 922.602 2036.33 938.217 2027.66C954.411 2018.4 974.075 2013.78 997.21 2013.78C1028.44 2013.78 1053.31 2024.19 1071.82 2045.01C1090.33 2065.83 1099.58 2096.48 1099.58 2136.97V2251.48C1099.58 2260.16 1096.4 2266.81 1090.04 2271.44C1083.67 2276.06 1077.02 2278.38 1070.08 2278.38C1062.56 2278.38 1055.62 2276.06 1049.26 2271.44C1043.48 2266.81 1040.59 2260.16 1040.59 2251.48V2142.17C1040.59 2092.43 1022.08 2067.56 985.064 2067.56C964.243 2067.56 949.206 2073.06 939.952 2084.05C930.699 2095.04 924.915 2108.05 922.602 2123.09V2251.48C922.602 2260.16 919.421 2266.81 913.059 2271.44C906.697 2276.06 900.046 2278.38 893.106 2278.38C885.587 2278.38 878.647 2276.06 872.285 2271.44C866.501 2266.81 863.609 2260.16 863.609 2251.48V2142.17C863.609 2116.72 858.693 2097.93 848.861 2085.78C839.029 2073.64 825.727 2067.56 808.955 2067.56C784.085 2067.56 767.313 2075.37 758.638 2090.99C750.541 2106.03 746.492 2122.8 746.492 2141.3V2251.48C746.492 2260.16 743.311 2266.81 736.949 2271.44C731.166 2276.06 724.515 2278.38 716.996 2278.38Z" fill="white"/>
<path d="M555.888 2042.41C555.888 2034.31 558.491 2027.66 563.696 2022.45C569.479 2016.67 576.709 2013.78 585.384 2013.78C593.481 2013.78 600.421 2016.67 606.205 2022.45C611.989 2027.66 614.88 2034.31 614.88 2042.41V2164.73C614.88 2190.75 609.097 2212.15 597.53 2228.93C585.963 2245.7 570.925 2258.13 552.418 2266.23C533.91 2274.33 514.246 2278.38 493.426 2278.38C472.605 2278.38 452.941 2274.33 434.433 2266.23C415.926 2258.13 400.889 2245.7 389.321 2228.93C377.754 2212.15 371.971 2190.75 371.971 2164.73V2042.41C371.971 2034.31 374.573 2027.66 379.779 2022.45C385.562 2016.67 392.792 2013.78 401.467 2013.78C409.564 2013.78 416.504 2016.67 422.288 2022.45C428.071 2027.66 430.963 2034.31 430.963 2042.41V2164.73C430.963 2186.13 437.325 2201.45 450.049 2210.71C462.773 2219.96 477.232 2224.59 493.426 2224.59C510.198 2224.59 524.657 2219.96 536.802 2210.71C549.526 2201.45 555.888 2186.13 555.888 2164.73V2042.41Z" fill="white"/>
<path d="M30.3637 2278.39C21.6884 2278.39 14.4589 2275.79 8.67534 2270.58C2.89178 2265.38 0 2258.73 0 2250.63V1946.99C0 1938.32 2.89178 1931.38 8.67534 1926.17C14.4589 1920.97 21.6884 1918.37 30.3637 1918.37C39.6174 1918.37 46.8468 1920.97 52.0521 1926.17C57.8356 1931.38 60.7274 1938.32 60.7274 1946.99V2034.61C60.7274 2051.97 68.8244 2060.64 85.0184 2060.64H209.943C226.137 2060.64 234.234 2051.97 234.234 2034.61V1946.99C234.234 1938.32 236.837 1931.38 242.042 1926.17C247.826 1920.97 255.344 1918.37 264.598 1918.37C273.852 1918.37 281.081 1920.97 286.286 1926.17C292.07 1931.38 294.962 1938.32 294.962 1946.99V2250.63C294.962 2258.73 292.07 2265.38 286.286 2270.58C281.081 2275.79 273.852 2278.39 264.598 2278.39C255.344 2278.39 247.826 2275.79 242.042 2270.58C236.837 2265.38 234.234 2258.73 234.234 2250.63V2140.45C234.234 2123.1 226.137 2114.43 209.943 2114.43H85.0184C68.8244 2114.43 60.7274 2123.1 60.7274 2140.45V2250.63C60.7274 2258.73 57.8356 2265.38 52.0521 2270.58C46.8468 2275.79 39.6174 2278.39 30.3637 2278.39Z" fill="white"/>
<path d="M1254.82 1431.47C1318.14 1431.47 1331.47 1432.43 1330.58 1436.93C1329.99 1439.93 1323.96 1445.37 1317.19 1449C1298.47 1459.06 1204.84 1457.15 1190.51 1446.41C1184.97 1442.27 1179.89 1437.22 1179.21 1435.18C1178.47 1432.95 1208.66 1431.47 1254.82 1431.47Z" fill="white"/>
<path d="M1176.02 1331.47C1191.99 1326.77 1309.38 1326.68 1331.47 1331.35C1341.21 1333.41 1366.89 1336.37 1388.53 1337.93L1427.89 1340.77L1416.24 1348.63C1406.09 1355.48 1396.7 1356.66 1343.43 1357.75C1309.8 1358.44 1271.65 1358.92 1258.66 1358.82C1245.67 1358.71 1208.6 1358.71 1176.26 1358.81C1128.83 1358.96 1114.59 1357.69 1102.47 1352.22C1094.22 1348.48 1087.47 1344.19 1087.47 1342.68C1087.47 1341.17 1104.73 1338.81 1125.84 1337.44C1146.94 1336.07 1169.52 1333.38 1176.02 1331.47Z" fill="white"/>
<path d="M1251.42 1222.09C1253.85 1215.75 1254.38 1215.77 1259.29 1222.52C1262.88 1227.44 1264.55 1242.42 1264.51 1269.44C1264.44 1310.44 1260.32 1326.52 1252.82 1315.06C1248.49 1308.45 1247.36 1232.72 1251.42 1222.09Z" fill="white"/>
<path d="M1697.47 820.536C1705.81 817.592 1758.54 817.348 1766 820.217C1778.23 824.921 1767.43 829.668 1744.51 829.668C1713.86 829.668 1687.75 840 1657.23 864.202C1643.65 874.968 1628.67 885.808 1623.94 888.294C1613.06 894.008 1570.41 894.122 1543.2 888.507C1520.08 883.736 1469.21 861.93 1469.21 856.787C1469.21 854.984 1503.31 853.914 1544.97 854.411L1620.73 855.318L1656.15 838.97C1675.63 829.98 1694.23 821.684 1697.47 820.536Z" fill="white"/>
<path d="M742.1 820.225C744.82 819.005 762.982 818.535 782.462 819.19C815.241 820.287 820.523 821.677 853.302 837.845C853.313 837.851 882.954 855.318 888.722 855.318C894.492 855.318 964.709 854.34 964.709 854.34C1015.43 853.689 1039.87 854.699 1038.22 857.375C1033.71 864.699 997.457 880.942 972.427 886.857C943.937 893.594 903.696 894.572 888.788 888.886C883.132 886.731 867.521 876.044 854.097 865.141C824.281 840.923 795.961 829.668 764.839 829.668C742.709 829.668 731.474 825.004 742.1 820.225Z" fill="white"/>
<path fill-rule="evenodd" clip-rule="evenodd" d="M1812.5 0C1831 0 1846 14.9985 1846 33.5C1846 52.0015 1831 67 1812.5 67C1812.16 67 1811.83 66.9933 1811.49 66.9834C1811.49 67.0065 1811.49 67.0295 1811.49 67.0527C1811.42 68.6825 1808.8 94.8745 1805.67 125.261C1802.53 155.647 1799.92 184.778 1799.88 189.999C1799.81 198.712 1800.36 198.993 1806.68 193.444C1820.62 181.207 1868.63 150.051 1890.95 138.753C1903.13 132.587 1909.07 128.925 1911.81 124.85C1911.28 122.484 1911 120.025 1911 117.5C1911 98.9985 1926 84 1944.5 84C1963 84 1978 98.9985 1978 117.5C1978 136.002 1963 151 1944.5 151C1935.25 151 1926.88 147.253 1920.82 141.194C1915.69 142.133 1909.44 145.216 1898.1 151.274C1850.58 176.673 1809.89 217.509 1766.74 283.111C1756.74 298.304 1740.78 321.784 1731.27 335.292C1710.76 364.392 1703.99 394.356 1706.02 446.881L1707.31 480.424L1738.8 489.686C1779.76 501.733 1839.33 502.653 1868.31 491.683C1887.09 484.575 1887.83 483.687 1894.48 460.014C1902.38 431.908 1909.99 367.789 1909.99 329.325C1909.99 313.168 1909.79 306.698 1906.28 301.432C1890.93 295.675 1880 280.865 1880 263.5C1880 241.132 1898.13 223 1920.5 223C1942.87 223 1961 241.132 1961 263.5C1961 281.341 1949.46 296.487 1933.44 301.887C1930.7 306.092 1929.31 315.412 1927.85 335.557C1926.47 354.459 1922.78 388.603 1919.64 411.424C1913.8 453.83 1912.42 478.451 1915.86 478.451C1916.93 478.45 1930.65 472.74 1946.36 465.768C1980.88 450.44 1998.66 438.097 2031.03 406.973C2043.8 394.696 2049.9 388.296 2051.96 383.665C2048.17 376.975 2046 369.241 2046 361C2046 335.595 2066.59 315 2092 315C2117.41 315 2138 335.595 2138 361C2138 386.405 2117.41 407 2092 407C2082.88 407 2074.38 404.345 2067.23 399.767C2061.81 402.192 2053.76 408.756 2039.29 421.79C2006.09 451.675 1983.54 466.798 1940.53 488.009C1910.48 502.831 1909.87 503.431 1894.7 533.284C1872.7 576.575 1868.86 592.104 1844.82 734.958C1832.95 805.497 1821.51 869.427 1819.41 877.023C1814.71 893.984 1814.54 900.701 1818.8 900.701C1824.92 900.701 1911.94 840.757 1921.04 830.268C1939.88 808.555 1963.59 752.858 1973.29 707.535C1976.36 693.176 1977.05 689.257 1972 683.538C1958.94 676.819 1950 663.203 1950 647.5C1950 625.132 1968.13 607 1990.5 607C2012.87 607 2031 625.132 2031 647.5C2031 667.951 2015.84 684.858 1996.15 687.605C1991.73 691.282 1988.7 695.193 1988.7 697.622C1988.7 708.869 1972.19 771.626 1964.49 789.633C1960.38 799.246 1957.65 807.734 1958.41 808.504C1959.71 809.806 2003.13 780.498 2032.5 758.493C2048.33 746.639 2088.77 710.664 2104.58 694.378C2109.74 689.064 2112.8 684.631 2114.29 679.915C2111.56 675.064 2110 669.464 2110 663.5C2110 644.998 2125 630 2143.5 630C2162 630 2177 644.998 2177 663.5C2177 682.002 2162 697 2143.5 697C2138.79 697 2134.31 696.026 2130.24 694.272C2123.59 697.491 2113.13 706.782 2093.49 726.178C2048.97 770.151 2010.83 798.351 1861.08 898.018L1806.27 934.501L1797.52 961.994C1779.76 1017.78 1752.55 1107.97 1752.56 1111.03C1752.57 1112.76 1760.1 1109.06 1769.3 1102.81C1783.96 1092.85 1820.43 1075 1883.19 1047.06C1893.35 1042.54 1910.73 1036.89 1921.83 1034.5C1932.94 1032.11 1942.58 1028.11 1943.27 1025.61C1943.46 1024.9 1943.81 1023.62 1944.26 1021.94C1944.09 1020.32 1944 1018.67 1944 1017C1944 991.595 1964.59 971 1990 971C2015.41 971 2036 991.595 2036 1017C2036 1042.41 2015.41 1063 1990 1063C1976.42 1063 1964.21 1057.11 1955.79 1047.75C1950.72 1044.59 1943.24 1046.19 1915.9 1055.13C1896.41 1061.5 1861.7 1076.16 1838.76 1087.72C1764.93 1124.9 1728.73 1157.73 1699.74 1213.76C1689.83 1232.93 1668.24 1268.99 1651.77 1293.89C1635.3 1318.8 1622.9 1340.26 1624.22 1341.58C1628.69 1346.06 1737.15 1305.32 1784.05 1281.54C1812.56 1267.1 1830.88 1255.71 1840.04 1246.65C1839.36 1243.71 1839 1240.65 1839 1237.5C1839 1215.13 1857.13 1197 1879.5 1197C1901.87 1197 1920 1215.13 1920 1237.5C1920 1259.87 1901.87 1278 1879.5 1278C1865.95 1278 1853.95 1271.34 1846.6 1261.12C1843.85 1262.59 1840.62 1264.6 1836.67 1267.23C1809.01 1285.59 1749.26 1313.59 1696.37 1332.97C1621.7 1360.33 1602.19 1371.76 1572.1 1405.8C1510.02 1476.03 1472.44 1512.12 1400.34 1570.76C1382.36 1585.39 1342.31 1607.33 1319.54 1615.01C1280.4 1628.24 1250.33 1629.4 1212.34 1619.17C1137.25 1598.93 1072.65 1547.95 930.848 1397.03C913.476 1378.54 871.224 1353 845.431 1345.4C800.172 1332.06 694.259 1283.67 665.742 1263.31C665.062 1262.83 664.409 1262.37 663.781 1261.96C656.385 1271.7 644.679 1278 631.5 1278C609.132 1278 591 1259.87 591 1237.5C591 1215.13 609.132 1197 631.5 1197C653.868 1197 672 1215.13 672 1237.5C672 1241.18 671.505 1244.75 670.583 1248.14C684.645 1261.78 718.701 1279.06 786.397 1308.32C827.461 1326.06 882.177 1344.64 885.011 1341.8C886.237 1340.56 876.631 1322.95 863.66 1302.65C850.689 1282.34 827.847 1243.53 812.903 1216.4C785.764 1167.13 779.534 1159.97 728.903 1119.85C704.42 1100.44 634.482 1066.62 586.087 1050.78C574.063 1046.84 567.199 1044.79 562.956 1044.39C554.574 1055.68 541.142 1063 526 1063C500.595 1063 480 1042.41 480 1017C480 991.595 500.595 971 526 971C551.405 971 572 991.595 572 1017C572 1020.91 571.508 1024.72 570.588 1028.34C570.7 1028.38 570.813 1028.42 570.928 1028.45C574.718 1029.55 585.784 1032.5 595.524 1034.99C605.265 1037.49 618.547 1041.88 625.041 1044.76C675.916 1067.29 710.639 1084.64 732.265 1098.33C746.203 1107.16 758.096 1113.81 758.695 1113.1C759.294 1112.4 752.249 1087.85 743.044 1058.55C733.835 1029.25 721.501 989.199 715.629 969.551L704.956 933.829L676.809 914.304C661.326 903.566 629.114 882.35 605.226 867.157C508.297 805.513 443.904 756.394 401.333 711.624C392.661 702.504 386.819 697.298 382.141 694.92C378.515 696.264 374.593 697 370.5 697C351.998 697 337 682.002 337 663.5C337 644.998 351.998 630 370.5 630C389.002 630 404 644.998 404 663.5C404 670.4 401.912 676.811 398.337 682.14C402.093 688.665 409.763 696.569 425.312 711.856C464.38 750.269 549.312 814.178 554.449 809.029C555.26 808.216 551.608 796.989 546.334 784.081C541.056 771.173 533.024 744.61 528.479 725.057C523.054 701.707 520.507 693.114 514.832 687.066C496.63 683.097 483 666.892 483 647.5C483 625.132 501.132 607 523.5 607C545.868 607 564 625.132 564 647.5C564 662.669 555.659 675.887 543.314 682.826L536.117 691.048L545.851 730.585C555.764 770.876 569.14 802.249 585.713 824.1C594.568 835.776 686.585 900.699 694.282 900.701C697.856 900.701 697.16 895.306 689.706 865.185C687.825 857.588 679.159 806.977 670.445 752.716C661.732 698.455 652.586 642.518 650.122 628.409C644.793 597.912 632.861 564.866 614.498 529.752C602.074 505.995 599.062 503.084 573.658 490.29C531.497 469.059 507.829 453.329 475.534 425.086C457.231 409.08 449.726 402.987 442.994 401.409C436.46 404.973 428.967 407 421 407C395.595 407 375 386.405 375 361C375 335.595 395.595 315 421 315C446.405 315 467 335.595 467 361C467 369.531 464.675 377.517 460.628 384.365C462.017 390.414 466.392 394.665 477.053 404.632C487.017 413.953 504.908 428.732 516.813 437.48C541.041 455.282 594.202 481.091 598.26 477.022C599.708 475.57 597.008 446.439 592.254 412.288C587.504 378.137 583.639 340.801 583.667 329.321C583.705 313.861 582.92 309.018 575.092 300.535C560.9 294.238 551 280.026 551 263.5C551 241.132 569.132 223 591.5 223C613.868 223 632 241.132 632 263.5C632 280.086 622.028 294.341 607.753 300.603C603.51 307.179 603.396 315.619 603.396 343.2C603.396 384.411 611.184 439.833 621.357 471.036C627.245 489.086 627.556 489.331 651.755 494.714C688.127 502.808 733.831 501.201 768.688 490.605C784.922 485.669 800.653 479.619 803.64 477.156C807.898 473.648 808.524 464.962 806.524 437.09C802.986 387.699 796.043 361.467 780.254 337.802C772.812 326.641 754.449 299.116 739.455 276.635C707.373 228.534 658.654 178.772 622.88 157.564C603.72 146.206 596.751 143.392 585.062 143.945C579.386 148.365 572.251 151 564.5 151C545.998 151 531 136.002 531 117.5C531 98.9985 545.998 84 564.5 84C583.002 84 598 98.9985 598 117.5C598 119.852 597.756 122.147 597.295 124.362C599.745 128.425 605.141 131.988 615.879 137.442C638.882 149.131 672.873 170.726 695.077 187.758C703.295 194.06 711.071 198.16 712.358 196.869C713.649 195.579 712.764 181.601 710.398 165.809C708.029 150.02 704.936 120.675 703.52 100.597C702.077 80.1291 701.082 70.9423 698.868 66.959C681.125 66.1079 667 51.4544 667 33.5C667 14.9985 681.998 0 700.5 0C719.002 0 734 14.9985 734 33.5C734 45.6988 727.479 56.3734 717.733 62.2314C714.861 91.8694 725.14 170.805 738.723 211.222C769.794 303.687 813.978 354.266 932.013 432.477C956.987 449.023 1041.48 494.236 1047.44 494.236C1050.35 494.236 1049.09 487.006 1043.87 473.728C1025.24 426.341 1016.25 376.531 1013.84 307.424C1012.21 260.884 1011.65 246.9 1008.09 241.161C988.971 235.582 975 217.924 975 197C975 171.595 995.595 151 1021 151C1046.41 151 1067 171.595 1067 197C1067 217.425 1053.69 234.737 1035.27 240.741L1032.37 242.456V279.137C1032.37 403.191 1063.82 501.205 1125.71 570.008C1182.87 633.547 1208.18 668.582 1237.32 724.488L1255.51 759.405L1267.91 737.377C1274.73 725.259 1280.31 714.194 1280.31 712.788C1280.31 709.682 1330.58 633.862 1337.05 627.209C1365.34 598.117 1426.57 518.586 1436.38 498.183C1453.29 463.01 1468.47 407.193 1473.09 363.228C1477.79 318.448 1478.21 252.656 1474.4 239.911C1457.2 233.252 1445 216.552 1445 197C1445 171.595 1465.59 151 1491 151C1516.41 151 1537 171.595 1537 197C1537 218.977 1521.59 237.351 1500.98 241.91C1497.8 247.66 1497.14 262.241 1495.76 307.483C1493.99 365.391 1492.11 380.181 1481.04 423.203C1474.07 450.334 1465.85 477.417 1462.78 483.384C1459.35 490.057 1458.8 494.236 1461.34 494.236C1471.06 494.235 1545.27 454.978 1583.34 429.69C1649.4 385.82 1691.93 349.171 1719.42 312.443C1765.73 250.55 1780.53 207.611 1791.79 102.436C1794.27 79.2788 1794.84 68.5856 1793.15 60.8457C1784.59 54.7768 1779 44.791 1779 33.5C1779 14.9985 1794 0 1812.5 0ZM840.739 384.049C806.079 354.681 804.462 354.144 812.298 374.605C814.636 380.715 818.26 402.32 820.35 422.611C824.151 459.528 836.45 499.685 851.365 523.884C857.985 534.622 871.118 548.327 917.73 593.137C921.257 596.527 932.945 606.294 943.705 614.842C1027.59 681.47 1111.28 761.165 1145.12 806.642C1165.71 834.313 1181.32 873.981 1188.12 915.934C1196.05 964.906 1192.74 1004.22 1174.11 1082.23C1156.63 1155.45 1158.14 1163.39 1191.33 1172.44C1207.35 1176.8 1225.21 1190.72 1225.21 1198.84C1225.21 1202.44 1221.16 1202.28 1208.48 1198.21C1199.28 1195.25 1187.33 1192 1181.92 1190.98C1151.93 1185.31 1147.07 1163.96 1160.7 1097.61C1167.49 1064.53 1171.43 1030.11 1172.86 991.299C1174.73 940.479 1173.99 930.321 1166.41 902.508C1134.47 785.521 1039.77 723.119 851.641 695.116C779.865 684.43 739.042 672.382 707.585 652.607C693.323 643.638 680.288 636.301 678.623 636.301C675.065 636.301 675.562 641.065 688.297 729.038C723.595 972.85 769.77 1112.51 869.044 1275.7C924.118 1366.23 1003.69 1456.32 1093.37 1529.7C1155.01 1580.13 1212.14 1607.08 1257.41 1607.08C1284.81 1607.08 1332.42 1590.84 1362.95 1571.08C1445.77 1517.48 1561.28 1399.56 1623.41 1305.19C1643.85 1274.14 1686.15 1203.81 1689.45 1195.38C1691.3 1190.66 1701.59 1168.16 1712.34 1145.37C1761.19 1041.73 1809.19 857.146 1829.32 695.495C1837.91 626.487 1838.62 629.624 1817.65 644.095C1775.45 673.206 1746.7 682.662 1661.75 695.365C1473.25 723.557 1375.99 786.887 1346.66 900.52C1335.64 943.261 1336.12 1011.45 1347.91 1077.04C1352.91 1104.85 1357.01 1137.98 1357.03 1150.65C1357.05 1171.01 1355.77 1174.79 1346.01 1183.2C1339.46 1188.85 1329.85 1192.78 1322.39 1192.86C1315.48 1192.94 1305.4 1195.54 1299.98 1198.64C1287.38 1205.87 1284.24 1205.91 1284.24 1198.83C1284.24 1192.54 1315.93 1169.05 1324.42 1169.05C1327.33 1169.05 1333.65 1166.28 1338.46 1162.9C1350.19 1154.67 1349.95 1135.04 1337.47 1083.38C1306.31 954.441 1317.29 870.827 1375.24 795.505C1397.85 766.113 1485 682.307 1541.43 635.678C1658.11 539.271 1682.26 505.124 1689.19 426.672C1691.18 404.147 1694.8 380.583 1697.22 374.312C1699.65 368.046 1700.74 362.02 1699.65 360.923C1698.55 359.832 1686.55 368.663 1672.97 380.552C1631.97 416.447 1541.69 478.451 1530.42 478.451C1529.12 478.451 1513.66 486.84 1496.06 497.093C1448.48 524.819 1392.36 583.453 1332.6 667.871C1303.18 709.437 1260.63 790.711 1260.63 805.344C1260.63 807.869 1258.86 809.937 1256.69 809.937C1254.53 809.936 1252.76 808.074 1252.76 805.801C1252.76 795.598 1202.1 698.775 1180.77 668.191C1132.84 599.495 1057.85 520.53 1022.53 501.572C1013.87 496.924 999.33 489.118 990.211 484.229C943.968 459.418 875.64 413.622 840.739 384.049ZM824.21 511.008C814.753 492.247 816.319 492.531 778.526 502.768C747.349 511.216 696.852 513.639 657.509 508.576C631.684 505.25 630.944 505.4 630.944 513.893C630.945 526.857 660.827 582.064 679.135 602.92C713.405 641.96 759.077 662.366 837.56 673.704C902.559 683.096 978.031 702.046 1019.72 719.441C1040.16 727.977 1057.81 734.958 1058.93 734.958C1063.14 734.955 998.822 676.931 966.11 651.229C868.442 574.495 844.096 550.435 824.21 511.008ZM1714.9 500.266C1697.49 495.013 1697.1 495.1 1690.78 505.436C1657.94 559.156 1645.01 572.518 1567.36 632.979C1520.68 669.319 1451.72 730.564 1454.42 733.276C1455.12 733.979 1472.46 727.8 1492.95 719.544C1534.85 702.67 1611.32 683.459 1675.33 673.735C1772.54 658.965 1821.86 630.173 1857.76 567.242C1874.24 538.36 1884.8 511.075 1880.99 507.251C1879.76 506.02 1862.9 507.049 1843.52 509.539C1817.76 512.854 1798.12 512.934 1770.45 509.84C1749.63 507.512 1724.64 503.206 1714.9 500.266Z" fill="white"/>
</svg>
