<svg width="2721" height="698" viewBox="0 0 2721 698" fill="none" xmlns="http://www.w3.org/2000/svg">
<path d="M2626.78 490.868C2609.47 490.868 2593.97 486.842 2580.28 478.789C2566.58 470.736 2555.91 459.663 2548.26 445.57C2540.61 431.075 2536.79 414.969 2536.79 397.252C2536.79 379.938 2540.61 364.436 2548.26 350.746C2555.91 337.056 2566.58 326.386 2580.28 318.736C2593.97 310.683 2609.47 306.656 2626.78 306.656C2638.06 306.656 2648.12 308.669 2656.98 312.696C2665.84 316.32 2673.49 321.152 2679.93 327.191C2680.74 321.554 2683.15 317.326 2687.18 314.508C2691.2 311.287 2695.63 309.676 2700.47 309.676C2705.7 309.676 2710.33 311.488 2714.36 315.112C2718.79 318.333 2721 323.366 2721 330.211V472.145C2721 478.185 2718.79 482.815 2714.36 486.036C2710.33 489.258 2705.7 490.868 2700.47 490.868C2695.23 490.868 2690.4 489.258 2685.97 486.036C2681.94 482.815 2679.93 478.185 2679.93 472.145V469.729C2673.49 476.171 2665.84 481.205 2656.98 484.828C2648.12 488.855 2638.06 490.868 2626.78 490.868ZM2630.4 453.422C2645.71 453.422 2657.79 448.389 2666.64 438.322C2675.5 427.854 2679.93 414.164 2679.93 397.252C2679.93 381.146 2675.5 368.262 2666.64 358.598C2657.79 348.934 2645.71 344.103 2630.4 344.103C2614.7 344.103 2602.02 348.934 2592.35 358.598C2582.69 368.262 2577.86 381.146 2577.86 397.252C2577.86 414.164 2582.69 427.854 2592.35 438.322C2602.02 448.389 2614.7 453.422 2630.4 453.422Z" fill="white"/>
<path d="M2442.3 395.44V472.145C2442.3 478.185 2440.09 482.815 2435.66 486.036C2431.63 489.258 2427 490.868 2421.77 490.868C2416.54 490.868 2411.7 489.258 2407.27 486.036C2403.25 482.815 2401.23 478.185 2401.23 472.145V330.211C2401.23 323.366 2403.25 318.333 2407.27 315.112C2411.7 311.488 2416.54 309.676 2421.77 309.676C2427 309.676 2431.63 311.488 2435.66 315.112C2440.09 318.333 2442.3 323.366 2442.3 330.211V332.627C2447.94 324.977 2455.19 318.736 2464.05 313.904C2473.31 309.072 2482.97 306.656 2493.04 306.656C2497.87 306.656 2502.7 307.26 2507.53 308.468C2512.37 309.676 2515.99 312.092 2518.41 315.716C2520.82 319.34 2522.03 323.366 2522.03 327.795C2522.03 333.03 2520.22 337.862 2516.59 342.291C2513.37 346.317 2508.54 348.33 2502.1 348.33C2499.28 348.33 2496.26 347.928 2493.04 347.122C2490.22 346.317 2486.6 345.915 2482.17 345.915C2470.49 345.915 2460.83 350.344 2453.18 359.202C2445.93 368.06 2442.3 380.14 2442.3 395.44Z" fill="white"/>
<path d="M2277.38 490.868C2247.18 490.868 2223.63 482.211 2206.72 464.897C2189.81 447.583 2181.35 424.229 2181.35 394.836C2181.35 369.066 2189.81 347.927 2206.72 331.419C2224.03 314.91 2246.18 306.656 2273.16 306.656C2299.33 306.656 2320.27 314.306 2335.97 329.607C2351.67 344.505 2359.52 363.026 2359.52 385.172C2359.52 394.03 2357.11 400.674 2352.28 405.103C2347.85 409.532 2342.01 411.747 2334.76 411.747H2229.67C2225.64 411.747 2224.23 413.962 2225.44 418.391C2228.66 429.665 2235.11 438.523 2244.77 444.966C2254.84 451.005 2266.11 454.025 2278.59 454.025C2287.85 454.025 2296.71 452.817 2305.17 450.401C2314.02 447.985 2321.67 444.362 2328.12 439.53C2330.13 437.919 2332.75 437.114 2335.97 437.114C2340.4 437.114 2344.42 439.127 2348.05 443.154C2351.67 446.777 2353.48 451.207 2353.48 456.441C2353.48 458.857 2353.08 461.273 2352.28 463.689C2351.47 466.105 2349.66 468.521 2346.84 470.936C2336.37 478.587 2325.1 483.821 2313.02 486.64C2301.34 489.458 2289.46 490.868 2277.38 490.868ZM2312.41 380.34C2314.83 380.34 2316.04 379.132 2316.04 376.717C2316.04 367.456 2311.81 359.403 2303.35 352.558C2295.3 345.713 2285.24 342.29 2273.16 342.29C2262.69 342.29 2252.62 345.109 2242.96 350.746C2233.7 356.383 2228.06 363.832 2226.05 373.093C2226.05 373.093 2226.05 373.294 2226.05 373.697C2225.64 375.307 2225.44 376.717 2225.44 377.924C2225.84 379.132 2227.66 379.736 2230.88 379.736L2312.41 380.34ZM2241.14 257.13L2296.71 213.04C2298.32 211.832 2300.33 210.624 2302.75 209.416C2305.57 207.805 2308.39 207 2311.21 207C2316.04 207 2320.27 208.812 2323.89 212.436C2327.51 216.06 2329.33 220.69 2329.33 226.327C2329.33 232.367 2326.71 236.997 2321.47 240.219L2257.45 278.269C2256.24 278.672 2255.04 279.275 2253.83 280.081C2253.02 280.483 2251.61 280.685 2249.6 280.685C2240.34 280.685 2235.71 276.457 2235.71 268.001C2235.71 263.572 2237.52 259.948 2241.14 257.13Z" fill="white"/>
<path d="M2074.58 490.868C2068.54 490.868 2062.91 489.459 2057.67 486.64C2052.44 484.224 2048.61 480.399 2046.2 475.165L1986.4 334.439C1985.6 331.218 1985.2 328.802 1985.2 327.191C1985.2 320.749 1987.41 315.716 1991.84 312.092C1996.27 308.468 2001.1 306.656 2006.33 306.656C2009.96 306.656 2013.38 307.663 2016.6 309.676C2020.23 311.689 2022.84 314.911 2024.45 319.34L2066.73 428.659C2068.74 432.685 2071.36 434.699 2074.58 434.699C2078.61 434.699 2081.23 432.685 2082.43 428.659L2124.11 319.34C2125.72 314.911 2128.14 311.689 2131.36 309.676C2134.98 307.663 2138.6 306.656 2142.23 306.656C2147.87 306.656 2152.7 308.468 2156.72 312.092C2161.15 315.716 2163.37 320.548 2163.37 326.587C2163.37 328.601 2162.96 331.218 2162.16 334.439L2102.97 475.165C2100.55 480.399 2096.73 484.224 2091.49 486.64C2086.26 489.459 2080.62 490.868 2074.58 490.868Z" fill="white"/>
<path d="M1858.11 490.868C1840.8 490.868 1825.3 486.842 1811.61 478.789C1797.92 470.736 1787.25 459.663 1779.6 445.57C1771.95 431.075 1768.12 414.969 1768.12 397.252C1768.12 379.938 1771.95 364.436 1779.6 350.746C1787.25 337.056 1797.92 326.386 1811.61 318.736C1825.3 310.683 1840.8 306.656 1858.11 306.656C1869.39 306.656 1879.45 308.669 1888.31 312.696C1897.17 316.32 1904.82 321.152 1911.26 327.191C1912.07 321.554 1914.48 317.326 1918.51 314.508C1922.54 311.287 1926.97 309.676 1931.8 309.676C1937.03 309.676 1941.66 311.488 1945.69 315.112C1950.12 318.333 1952.33 323.366 1952.33 330.211V472.145C1952.33 478.185 1950.12 482.815 1945.69 486.036C1941.66 489.258 1937.03 490.868 1931.8 490.868C1926.56 490.868 1921.73 489.258 1917.3 486.036C1913.28 482.815 1911.26 478.185 1911.26 472.145V469.729C1904.82 476.171 1897.17 481.205 1888.31 484.828C1879.45 488.855 1869.39 490.868 1858.11 490.868ZM1861.74 453.422C1877.04 453.422 1889.12 448.389 1897.98 438.322C1906.83 427.854 1911.26 414.164 1911.26 397.252C1911.26 381.146 1906.83 368.262 1897.98 358.598C1889.12 348.934 1877.04 344.103 1861.74 344.103C1846.03 344.103 1833.35 348.934 1823.69 358.598C1814.02 368.262 1809.19 381.146 1809.19 397.252C1809.19 414.164 1814.02 427.854 1823.69 438.322C1833.35 448.389 1846.03 453.422 1861.74 453.422Z" fill="white"/>
<path d="M1463.17 490.868C1457.93 490.868 1453.1 489.258 1448.67 486.036C1444.65 482.815 1442.63 478.185 1442.63 472.145V330.211C1442.63 323.366 1444.65 318.333 1448.67 315.112C1453.1 311.488 1457.93 309.676 1463.17 309.676C1467.19 309.676 1471.02 310.683 1474.64 312.696C1478.27 314.307 1480.88 317.326 1482.5 321.756C1483.3 324.171 1483.7 326.386 1483.7 328.399C1489.74 321.957 1497.59 316.722 1507.26 312.696C1516.92 308.669 1526.38 306.656 1535.64 306.656C1561.82 306.656 1581.14 317.125 1593.63 338.063C1598.46 329.607 1606.31 322.36 1617.18 316.32C1628.46 309.877 1642.15 306.656 1658.25 306.656C1679.99 306.656 1697.31 313.904 1710.19 328.399C1723.08 342.895 1729.52 364.235 1729.52 392.42V472.145C1729.52 478.185 1727.31 482.815 1722.88 486.036C1718.45 489.258 1713.82 490.868 1708.99 490.868C1703.75 490.868 1698.92 489.258 1694.49 486.036C1690.46 482.815 1688.45 478.185 1688.45 472.145V396.044C1688.45 361.417 1675.57 344.103 1649.8 344.103C1635.3 344.103 1624.83 347.928 1618.39 355.578C1611.95 363.228 1607.92 372.288 1606.31 382.757V472.145C1606.31 478.185 1604.1 482.815 1599.67 486.036C1595.24 489.258 1590.61 490.868 1585.77 490.868C1580.54 490.868 1575.71 489.258 1571.28 486.036C1567.25 482.815 1565.24 478.185 1565.24 472.145V396.044C1565.24 378.328 1561.82 365.242 1554.97 356.786C1548.13 348.33 1538.87 344.103 1527.19 344.103C1509.88 344.103 1498.2 349.538 1492.16 360.41C1486.52 370.879 1483.7 382.556 1483.7 395.44V472.145C1483.7 478.185 1481.49 482.815 1477.06 486.036C1473.03 489.258 1468.4 490.868 1463.17 490.868Z" fill="white"/>
<path d="M1351.01 326.587C1351.01 320.95 1352.82 316.32 1356.44 312.696C1360.47 308.669 1365.5 306.656 1371.54 306.656C1377.18 306.656 1382.01 308.669 1386.04 312.696C1390.06 316.32 1392.08 320.95 1392.08 326.587V411.748C1392.08 429.867 1388.05 444.765 1380 456.442C1371.94 468.118 1361.48 476.775 1348.59 482.413C1335.71 488.05 1322.02 490.868 1307.52 490.868C1293.03 490.868 1279.34 488.05 1266.45 482.413C1253.57 476.775 1243.1 468.118 1235.04 456.442C1226.99 444.765 1222.96 429.867 1222.96 411.748V326.587C1222.96 320.95 1224.78 316.32 1228.4 312.696C1232.43 308.669 1237.46 306.656 1243.5 306.656C1249.14 306.656 1253.97 308.669 1258 312.696C1262.02 316.32 1264.04 320.95 1264.04 326.587V411.748C1264.04 426.646 1268.46 437.316 1277.32 443.758C1286.18 450.201 1296.25 453.422 1307.52 453.422C1319.2 453.422 1329.26 450.201 1337.72 443.758C1346.58 437.316 1351.01 426.646 1351.01 411.748V326.587Z" fill="white"/>
<path d="M985.139 490.879C979.099 490.879 974.066 489.068 970.04 485.444C966.013 481.82 964 477.189 964 471.552V260.162C964 254.122 966.013 249.29 970.04 245.666C974.066 242.042 979.099 240.23 985.139 240.23C991.581 240.23 996.615 242.042 1000.24 245.666C1004.26 249.29 1006.28 254.122 1006.28 260.162V321.163C1006.28 333.242 1011.92 339.282 1023.19 339.282H1110.16C1121.44 339.282 1127.07 333.242 1127.07 321.163V260.162C1127.07 254.122 1128.88 249.29 1132.51 245.666C1136.54 242.042 1141.77 240.23 1148.21 240.23C1154.65 240.23 1159.69 242.042 1163.31 245.666C1167.34 249.29 1169.35 254.122 1169.35 260.162V471.552C1169.35 477.189 1167.34 481.82 1163.31 485.444C1159.69 489.068 1154.65 490.879 1148.21 490.879C1141.77 490.879 1136.54 489.068 1132.51 485.444C1128.88 481.82 1127.07 477.189 1127.07 471.552V394.848C1127.07 382.768 1121.44 376.728 1110.16 376.728H1023.19C1011.92 376.728 1006.28 382.768 1006.28 394.848V471.552C1006.28 477.189 1004.26 481.82 1000.24 485.444C996.615 489.068 991.581 490.879 985.139 490.879Z" fill="white"/>
<path fill-rule="evenodd" clip-rule="evenodd" d="M393.57 610.973C407.057 610.973 415.311 611.074 420.148 611.423C422.525 611.594 424.277 611.836 425.448 612.236C426.025 612.434 426.71 612.749 427.221 613.328C427.798 613.983 427.99 614.781 427.881 615.539L427.854 615.69C427.703 616.458 427.276 617.136 426.89 617.643C426.472 618.19 425.944 618.74 425.364 619.263C424.204 620.309 422.706 621.369 421.127 622.217C419.867 622.894 418.139 623.396 416.214 623.787C414.251 624.186 411.935 624.497 409.408 624.729C404.353 625.192 398.342 625.351 392.412 625.229C386.484 625.108 380.587 624.707 375.76 624.04C373.349 623.707 371.167 623.302 369.366 622.821C367.628 622.357 366.02 621.765 364.934 620.951L364.467 620.596C363.386 619.757 362.361 618.856 361.535 618.034C361.064 617.566 360.636 617.1 360.293 616.669C359.993 616.292 359.607 615.761 359.416 615.185C359.221 614.597 359.304 613.997 359.562 613.518C359.784 613.106 360.09 612.861 360.267 612.738C360.615 612.496 360.994 612.369 361.227 612.299C361.748 612.142 362.434 612.023 363.191 611.924C364.745 611.72 367.006 611.549 369.841 611.41C375.529 611.131 383.709 610.973 393.57 610.973ZM366.417 619.545C366.37 619.515 366.325 619.486 366.281 619.456L366.279 619.455C366.324 619.485 366.37 619.515 366.417 619.545ZM402.73 612.994C404.051 613.001 405.301 613.01 406.483 613.021C404.074 612.998 401.385 612.984 398.39 612.978L402.73 612.994Z" fill="white"/>
<path fill-rule="evenodd" clip-rule="evenodd" d="M393.512 519.605C394.137 519.64 394.616 519.905 394.915 520.114C395.22 520.328 395.48 520.585 395.691 520.816C396.11 521.275 396.581 521.907 397.096 522.612L397.311 522.932C397.793 523.702 398.14 524.65 398.409 525.677C398.724 526.879 398.969 528.34 399.158 530.046C399.537 533.458 399.711 538.026 399.702 543.819C399.689 552.557 399.249 558.879 398.337 562.442C398.105 563.346 397.819 564.176 397.444 564.854C397.092 565.493 396.506 566.282 395.539 566.642C395.382 566.7 395.226 566.742 395.072 566.771C401.387 566.796 407.638 566.914 412.971 567.127C418.684 567.356 423.496 567.698 426.177 568.185L426.685 568.283C430.697 569.132 441.536 570.388 450.761 571.055L473.321 572.683L463.554 579.273C461.075 580.946 458.675 581.887 454.051 582.467C449.543 583.032 442.747 583.274 431.414 583.508C417.067 583.803 400.766 584.009 395.192 583.963C389.664 583.917 373.857 583.917 360.062 583.961C340.59 584.023 333.819 583.553 328.281 581.201L327.749 580.967C325.924 580.141 324.236 579.241 322.979 578.442C322.359 578.048 321.789 577.644 321.352 577.257C321.137 577.067 320.899 576.833 320.698 576.563C320.546 576.359 320.172 575.821 320.172 575.074V575.07C320.174 574.054 320.866 573.495 321.042 573.36C321.301 573.163 321.569 573.04 321.743 572.968C322.113 572.815 322.561 572.691 323.009 572.587C323.931 572.371 325.205 572.157 326.71 571.951C329.358 571.589 332.86 571.237 336.731 570.957L340.093 570.727C344.024 570.444 347.984 570.065 351.348 569.665C355.257 569.2 358.188 568.726 359.385 568.374C360.446 568.062 362.154 567.829 364.185 567.641C366.269 567.447 368.856 567.288 371.773 567.16C377.611 566.904 384.835 566.772 392.13 566.767C392.75 566.766 393.37 566.767 393.99 566.769C393.503 566.673 393.066 566.463 392.707 566.214C392.046 565.755 391.501 565.081 391.042 564.381C390.742 563.923 390.568 563.37 390.453 562.939C390.325 562.457 390.213 561.891 390.114 561.274C389.916 560.037 389.747 558.466 389.606 556.692C389.324 553.139 389.144 548.646 389.076 544.119C389.008 539.591 389.053 534.994 389.225 531.23C389.311 529.351 389.43 527.657 389.586 526.272C389.735 524.953 389.935 523.72 390.253 522.89C390.5 522.243 390.766 521.571 391.069 521.062C391.305 520.667 392.054 519.525 393.512 519.605ZM354.332 571.302C350.042 571.887 344.169 572.471 338.541 572.836L338.542 572.837C344.169 572.472 350.042 571.888 354.332 571.302ZM361.714 569.938C361.664 569.946 361.616 569.954 361.567 569.961C361.646 569.949 361.726 569.938 361.808 569.926C361.776 569.93 361.745 569.934 361.714 569.938ZM364.369 569.632C364.114 569.655 363.867 569.679 363.628 569.704C363.241 569.744 362.877 569.786 362.535 569.828C363.208 569.745 363.971 569.666 364.813 569.593C364.663 569.606 364.515 569.618 364.369 569.632ZM374.1 569.067C374.021 569.07 373.942 569.073 373.863 569.076C374.141 569.066 374.422 569.057 374.705 569.047C374.502 569.054 374.3 569.06 374.1 569.067ZM378.905 568.924C378.802 568.926 378.699 568.929 378.597 568.932C378.758 568.928 378.919 568.924 379.081 568.92C379.022 568.921 378.964 568.922 378.905 568.924ZM391.865 524.545C391.768 525.021 391.681 525.602 391.602 526.272C391.708 525.381 391.827 524.648 391.965 524.109L391.865 524.545Z" fill="white"/>
<path fill-rule="evenodd" clip-rule="evenodd" d="M597.168 349.218C600.428 349.203 603.691 349.266 606.354 349.411C607.683 349.484 608.884 349.578 609.87 349.697C610.678 349.795 611.487 349.925 612.115 350.124L612.373 350.214L612.908 350.433C613.429 350.659 613.902 350.909 614.305 351.19C614.801 351.537 615.435 352.101 615.705 352.956C616.031 353.989 615.677 354.922 615.139 355.546C614.67 356.089 614.044 356.441 613.499 356.681C612.377 357.174 610.826 357.52 609.033 357.75C607.205 357.985 604.996 358.114 602.487 358.114C589.973 358.114 579.259 362.294 566.492 372.421C563.573 374.736 560.504 377.059 557.905 378.94C555.354 380.787 553.136 382.298 551.979 382.906L551.979 382.907C550.47 383.7 548.144 384.189 545.582 384.502C542.942 384.824 539.787 384.986 536.443 384.995C529.767 385.013 522.171 384.42 516.195 383.187C511.063 382.127 503.025 379.226 496.332 376.355C492.971 374.914 489.883 373.452 487.612 372.193C486.486 371.569 485.501 370.962 484.773 370.406C484.415 370.132 484.053 369.821 483.761 369.479C483.533 369.211 483.036 368.575 483.036 367.689L483.042 367.528C483.1 366.747 483.575 366.268 483.797 366.083C484.051 365.871 484.306 365.755 484.443 365.698C484.737 365.578 485.054 365.504 485.308 365.454C485.846 365.347 486.569 365.259 487.407 365.184C489.107 365.031 491.527 364.907 494.469 364.814C500.364 364.629 508.475 364.568 517.382 364.675L549.249 365.057L563.951 358.269C572.207 354.457 580.254 350.861 581.752 350.331C582.417 350.096 583.347 349.937 584.317 349.815C585.335 349.688 586.563 349.582 587.915 349.497C590.623 349.327 593.908 349.233 597.168 349.218ZM511.237 379.795C511.426 379.853 511.613 379.909 511.799 379.965C511.555 379.891 511.308 379.816 511.06 379.738C511.119 379.757 511.178 379.777 511.237 379.795ZM510.024 379.41C510.218 379.473 510.411 379.532 510.602 379.593C510.326 379.505 510.048 379.417 509.768 379.325C509.854 379.353 509.939 379.382 510.024 379.41ZM507.507 378.562C507.648 378.611 507.789 378.658 507.929 378.706C507.643 378.608 507.357 378.507 507.068 378.405C507.215 378.457 507.361 378.511 507.507 378.562ZM506.215 378.104C506.283 378.128 506.351 378.151 506.419 378.176C506.199 378.097 505.978 378.016 505.757 377.936C505.91 377.991 506.062 378.049 506.215 378.104ZM485.036 367.688C485.036 367.757 485.057 367.833 485.099 367.915L485.053 367.797C485.042 367.759 485.036 367.723 485.036 367.688ZM485.205 367.548C485.196 367.551 485.188 367.555 485.18 367.559C485.2 367.55 485.223 367.542 485.247 367.533C485.232 367.539 485.218 367.542 485.205 367.548ZM507.774 366.624C509.795 366.621 511.9 366.626 514.065 366.643L510.866 366.626C509.817 366.623 508.785 366.622 507.774 366.624Z" fill="white"/>
<path fill-rule="evenodd" clip-rule="evenodd" d="M180.705 349.563C183.872 349.482 187.927 349.503 192.115 349.644C199.093 349.877 203.363 350.143 207.668 351.277C211.417 352.265 215.13 353.894 220.665 356.589L223.155 357.811L223.222 357.844L223.286 357.881C223.306 357.893 226.431 359.734 229.852 361.572C231.572 362.497 233.339 363.406 234.812 364.078C235.551 364.415 236.187 364.679 236.688 364.854C237.259 365.055 237.443 365.062 237.381 365.062C238.594 365.062 246.678 364.958 254.487 364.854C258.385 364.801 262.206 364.749 265.053 364.71C266.476 364.69 267.657 364.674 268.48 364.662C268.892 364.656 269.215 364.652 269.435 364.649C269.544 364.648 269.629 364.646 269.686 364.646C269.714 364.645 269.736 364.645 269.75 364.645H269.774C280.6 364.505 288.661 364.544 293.941 364.762C296.565 364.87 298.58 365.025 299.921 365.242C300.552 365.344 301.219 365.487 301.745 365.73C301.975 365.837 302.482 366.096 302.838 366.64C303.042 366.952 303.199 367.366 303.195 367.849C303.192 368.322 303.036 368.711 302.865 368.989C302.436 369.686 301.759 370.311 301.077 370.847C300.36 371.41 299.479 371.996 298.492 372.586C296.516 373.768 293.993 375.043 291.228 376.282C286.049 378.603 279.874 380.869 274.596 382.214L273.553 382.47C267.315 383.945 259.843 384.781 253.127 384.944C246.503 385.105 240.273 384.623 236.696 383.258C235.234 382.7 232.779 381.192 230.122 379.372C227.394 377.504 224.253 375.167 221.348 372.807C208.898 362.69 197.248 358.114 184.529 358.114C179.767 358.114 175.87 357.624 173.671 356.711C173.107 356.477 172.509 356.157 172.031 355.698C171.534 355.221 171.022 354.437 171.11 353.403C171.193 352.439 171.762 351.756 172.236 351.34C172.729 350.908 173.347 350.557 174.007 350.26L174.01 350.259C174.415 350.077 174.891 349.986 175.241 349.93C175.648 349.864 176.132 349.809 176.668 349.763C177.743 349.67 179.124 349.604 180.705 349.563ZM233.176 379.005C233.346 379.115 233.515 379.221 233.68 379.325C233.459 379.185 233.234 379.04 233.003 378.891L233.176 379.005ZM173.416 354.256C173.444 354.283 173.474 354.309 173.506 354.336L173.416 354.256C173.388 354.229 173.361 354.201 173.337 354.174L173.416 354.256Z" fill="white"/>
<path fill-rule="evenodd" clip-rule="evenodd" d="M631.493 0C640.492 0 647.785 7.29757 647.785 16.2979C647.785 24.8251 641.238 31.8228 632.897 32.5352C632.537 36.3528 631.614 45.5115 630.566 55.668C629.293 68.0076 628.244 79.7022 628.122 82.6934C631.38 79.9306 637.819 75.4395 644.556 71.0654C651.625 66.4752 659.198 61.8982 664.058 59.4375C666.648 58.1253 668.497 57.1187 669.826 56.2471C670.721 55.6602 671.317 55.1722 671.725 54.75C671.589 53.903 671.517 53.0345 671.517 52.1504C671.517 43.15 678.81 35.8525 687.809 35.8525C696.807 35.8526 704.1 43.1501 704.101 52.1504C704.101 61.1508 696.807 68.4491 687.809 68.4492C683.724 68.4492 679.988 66.9431 677.13 64.46C675.417 64.9711 673.085 66.1222 668.955 68.3301C649.081 78.9573 631.946 96.0947 613.641 123.935C609.366 130.435 602.546 140.474 598.473 146.259C590.073 158.185 587.206 170.478 588.063 192.658L588.56 205.538L600.614 209.086C609.142 211.595 619.679 212.962 629.625 213.115C639.612 213.269 648.761 212.196 654.597 209.986C658.75 208.414 660.256 207.723 661.285 206.477C661.799 205.855 662.261 205.001 662.777 203.598C663.299 202.182 663.829 200.344 664.544 197.8C667.852 186.026 671.086 158.849 671.086 142.561C671.086 139.079 671.063 136.788 670.87 135.091C670.722 133.786 670.48 132.942 670.129 132.261C663.179 129.349 658.291 122.481 658.291 114.466C658.291 103.815 666.921 95.1797 677.569 95.1797C688.217 95.1797 696.848 103.815 696.848 114.466C696.848 122.677 691.718 129.684 684.495 132.467C684.226 133.099 683.94 134.128 683.668 135.805C683.311 138.004 683.012 141.073 682.699 145.365C682.11 153.484 680.527 168.1 679.183 177.874C677.94 186.905 677.179 193.996 676.908 198.806C676.789 200.916 676.768 202.527 676.831 203.647C677.429 203.41 678.156 203.117 678.985 202.772C681.326 201.799 684.45 200.452 687.79 198.969C702.268 192.537 709.663 187.412 723.34 174.26L725.244 172.417C727.013 170.691 728.381 169.306 729.425 168.158C730.367 167.122 730.984 166.339 731.382 165.731C729.93 162.824 729.111 159.546 729.111 156.08C729.111 144.133 738.792 134.446 750.736 134.446C762.68 134.446 772.361 144.133 772.361 156.08C772.361 168.027 762.68 177.714 750.736 177.714C746.873 177.714 743.243 176.695 740.101 174.916C739.284 175.395 738.248 176.123 736.9 177.193C735.032 178.678 732.668 180.735 729.586 183.512C715.278 196.398 705.502 202.955 687.001 212.083C680.483 215.299 677.557 216.799 675.362 218.968C673.168 221.137 671.634 224.041 668.345 230.519C659.121 248.677 657.52 254.998 647.254 316.022C644.721 331.081 642.234 345.436 640.268 356.435C638.315 367.357 636.85 375.122 636.37 376.859L636.369 376.86C635.401 380.358 634.945 382.634 634.883 384.001C635.115 383.881 635.379 383.74 635.673 383.576C636.898 382.894 638.542 381.901 640.484 380.674C644.362 378.224 649.345 374.903 654.379 371.434C659.412 367.965 664.477 364.361 668.52 361.352C670.542 359.846 672.297 358.498 673.659 357.394C675.063 356.255 675.936 355.468 676.29 355.06L676.649 354.638C680.377 350.165 684.665 342.345 688.567 333.174C692.576 323.752 696.096 313.095 698.134 303.567C698.809 300.406 699.14 298.725 699.114 297.524C699.096 296.682 698.907 296.119 698.259 295.325C692.246 292.064 688.155 285.693 688.155 278.362C688.155 267.712 696.786 259.076 707.434 259.076C718.082 259.076 726.712 267.712 726.712 278.362C726.712 287.895 719.8 295.806 710.716 297.366C710.05 297.957 709.517 298.527 709.147 299.019C708.763 299.53 708.685 299.786 708.67 299.809L708.667 299.755L708.661 300.043C708.604 301.56 708.126 304.207 707.47 307.257C706.75 310.601 705.759 314.669 704.668 318.817C702.499 327.063 699.884 335.816 698.177 339.812C697.674 340.99 697.222 342.119 696.846 343.132C698.74 341.941 701.19 340.338 703.938 338.481C710.183 334.265 717.919 328.808 724.153 324.135C730.811 319.146 747.984 303.864 754.668 296.978C756.447 295.145 757.483 293.698 758.063 292.337C757.009 290.178 756.416 287.752 756.416 285.191C756.416 276.191 763.709 268.893 772.708 268.893C781.707 268.893 789 276.191 789 285.191C789 294.192 781.707 301.489 772.708 301.489C770.773 301.489 768.915 301.15 767.19 300.528C766.088 301.187 764.619 302.294 762.605 304.052C760.136 306.207 756.962 309.232 752.778 313.365C733.625 332.29 717.192 344.427 653.329 386.951L630.528 402.134L627.008 413.199C623.223 425.092 618.43 440.658 614.584 453.414C612.661 459.792 610.976 465.463 609.772 469.617C609.397 470.913 609.071 472.059 608.798 473.03C609.723 472.491 610.792 471.82 611.937 471.042C618.371 466.666 634.122 458.97 660.839 447.071L661.71 446.693C666.233 444.784 673.153 442.566 677.718 441.584C679.991 441.095 682.084 440.446 683.609 439.812C684.379 439.493 684.946 439.201 685.305 438.968C685.363 438.93 685.41 438.894 685.448 438.866C685.511 438.636 685.589 438.345 685.682 438.003C685.625 437.367 685.595 436.722 685.595 436.07C685.595 424.123 695.276 414.437 707.22 414.437C719.164 414.437 728.845 424.123 728.845 436.07C728.845 448.017 719.164 457.703 707.22 457.703C700.957 457.703 695.316 455.037 691.37 450.784C690.901 450.558 690.088 450.411 688.052 450.797C685.675 451.247 682.088 452.328 676.227 454.245C668.031 456.926 653.316 463.143 643.596 468.04C612.36 483.778 597.284 497.529 585.165 520.97C580.893 529.233 571.643 544.687 564.591 555.355C561.093 560.647 558.037 565.559 555.932 569.203C555.236 570.407 554.655 571.461 554.196 572.334C555.512 572.022 557.208 571.546 559.223 570.924C564.088 569.421 570.634 567.125 577.77 564.443C592.053 559.076 608.544 552.223 618.453 547.197L620.682 546.057C630.795 540.829 637.429 536.678 641.065 533.393C640.89 532.347 640.799 531.275 640.799 530.183C640.799 519.532 649.429 510.897 660.077 510.896C670.725 510.896 679.356 519.532 679.356 530.183C679.356 540.833 670.725 549.469 660.077 549.469C654.277 549.469 649.077 546.904 645.546 542.854C644.775 543.321 643.904 543.876 642.911 544.536C630.922 552.501 605.264 564.515 582.636 572.809C566.704 578.648 556.814 582.734 549.318 587.129C541.892 591.483 536.761 596.174 530.43 603.339C504.701 632.457 488.778 647.893 459.766 671.649L456.916 673.976C452.943 677.209 446.631 681.178 440.145 684.732C433.655 688.288 426.837 691.511 421.821 693.205L421.822 693.206C404.768 698.97 391.536 699.491 374.925 695.014C342.269 686.21 314.35 664.01 253.896 599.64C250.372 595.889 244.191 591.302 237.445 587.223C230.706 583.147 223.615 579.707 218.347 578.153C208.549 575.264 192.319 568.627 177.072 561.659C162.387 554.948 148.356 547.811 141.769 543.3C138.251 547.09 133.226 549.469 127.643 549.469C116.995 549.469 108.364 540.833 108.364 530.183C108.364 519.532 116.995 510.897 127.643 510.896C138.291 510.896 146.921 519.532 146.921 530.183C146.921 531.504 146.786 532.796 146.532 534.044C149.415 536.575 154.124 539.55 161.359 543.291C169.288 547.391 180.089 552.334 194.521 558.573C203.226 562.336 213.391 566.192 221.521 568.954C225.59 570.336 229.119 571.433 231.686 572.107C232.098 572.216 232.481 572.311 232.833 572.395C232.532 571.797 232.173 571.113 231.759 570.353C230.136 567.375 227.753 563.371 225.004 559.065C219.441 550.354 209.674 533.749 203.283 522.142C197.489 511.618 194.02 505.774 189.365 500.422C184.695 495.051 178.778 490.115 167.955 481.534C162.918 477.54 153.019 471.94 141.688 466.458C131.102 461.337 119.423 456.392 109.587 453.038L107.646 452.389C103.443 451.012 100.888 450.236 99.251 449.911C95.2872 454.669 89.3147 457.703 82.6328 457.703C70.6891 457.703 61.0079 448.017 61.0078 436.07C61.0078 424.123 70.689 414.437 82.6328 414.437C94.5768 414.437 104.258 424.123 104.258 436.07C104.258 437.234 104.164 438.376 103.986 439.491C105.448 439.89 107.49 440.435 109.63 440.994L112.791 441.812C117.013 442.895 122.793 444.803 125.697 446.09L129.689 447.868C149.257 456.636 162.927 463.534 171.702 469.093L171.703 469.094C174.493 470.862 177.078 472.415 179.044 473.525C178.808 472.662 178.53 471.673 178.215 470.575C177.311 467.425 176.114 463.415 174.744 458.974L173.322 454.404C169.392 441.893 164.127 424.789 161.618 416.391L157.265 401.814L145.832 393.881C139.256 389.318 125.538 380.279 115.359 373.803C73.9657 347.466 46.3292 326.397 27.9971 307.109C24.7706 303.715 22.6304 301.783 21.0449 300.782C19.5396 301.241 17.9435 301.489 16.292 301.489C7.2934 301.489 8.24308e-05 294.192 0 285.191C0 276.191 7.29335 268.893 16.292 268.893C25.2907 268.893 32.584 276.191 32.584 285.191C32.584 288.07 31.8343 290.778 30.5225 293.127C32.154 295.488 35.2035 298.625 41.0791 304.404C49.325 312.515 62.4735 323.375 73.8545 331.942C79.5424 336.224 84.7497 339.903 88.6494 342.366C89.9695 343.2 91.1144 343.876 92.0605 344.386C91.4514 342.53 90.5391 340.064 89.457 337.414L89.0117 336.29C86.8779 330.75 83.9907 321.187 82.126 313.527L81.7422 311.917C80.5812 306.917 79.7536 303.612 78.9307 301.244C78.2316 299.232 77.5693 298.002 76.7852 297.047C68.4513 294.918 62.2881 287.364 62.2881 278.362C62.2881 267.712 70.9184 259.076 81.5664 259.076C92.2145 259.076 100.845 267.712 100.845 278.362C100.845 285.46 97.0096 291.654 91.3105 295.001L89.1396 297.482L93.0439 313.347C97.2384 330.401 102.859 343.503 109.702 352.529L109.85 352.709C110.252 353.175 111.075 353.962 112.35 355.055C113.756 356.259 115.584 357.727 117.702 359.366C121.936 362.642 127.274 366.556 132.606 370.319C137.939 374.084 143.245 377.684 147.41 380.337C149.496 381.666 151.273 382.742 152.613 383.479C152.827 383.597 153.028 383.703 153.213 383.8C152.932 381.732 152.1 378.087 150.533 371.753C149.704 368.4 145.99 346.684 142.283 323.587C138.565 300.424 134.666 276.565 133.617 270.559L133.4 269.358C131.147 257.324 126.454 244.291 119.337 230.422L118.616 229.032C115.949 223.93 114.436 221.37 112.364 219.367C110.28 217.352 107.528 215.801 102.065 213.049C83.9429 203.919 73.7025 197.113 59.7861 184.938C55.8695 181.511 53.1776 179.208 51.1172 177.676C49.4701 176.451 48.3383 175.806 47.4229 175.473C44.5319 176.905 41.2767 177.714 37.8369 177.714C25.893 177.714 16.212 168.027 16.2119 156.08C16.2119 144.133 25.893 134.446 37.8369 134.446C49.7809 134.446 59.4619 144.133 59.4619 156.08C59.4619 159.77 58.5327 163.246 56.9014 166.289C57.1517 166.938 57.5679 167.607 58.2891 168.457C59.0527 169.358 60.0912 170.388 61.5342 171.755L63.1172 173.242C67.3061 177.162 74.8776 183.42 79.8984 187.111C84.9284 190.809 93.0622 195.402 100.188 198.863C103.746 200.591 106.994 202.008 109.43 202.881C110.301 203.193 111.033 203.421 111.617 203.571C111.614 203.437 111.614 203.294 111.608 203.143C111.558 201.718 111.411 199.693 111.181 197.203C110.72 192.233 109.929 185.512 108.918 178.246C106.895 163.694 105.223 147.618 105.235 142.554C105.244 139.219 105.152 137.324 104.738 135.835C104.377 134.538 103.734 133.444 102.359 131.911C95.8269 128.827 91.2989 122.179 91.2988 114.466C91.2988 103.815 99.9292 95.1798 110.577 95.1797C121.225 95.1797 129.856 103.815 129.856 114.466C129.856 122.132 125.384 128.746 118.916 131.855C118.416 132.799 118.087 134.02 117.896 136.205C117.667 138.82 117.652 142.558 117.652 148.482C117.652 165.912 120.956 189.35 125.217 202.425C125.857 204.388 126.297 205.71 126.762 206.705C127.201 207.647 127.604 208.162 128.1 208.548C128.632 208.963 129.421 209.346 130.833 209.771C132.25 210.199 134.113 210.618 136.719 211.198C151.907 214.58 171.056 213.904 185.589 209.484C189.011 208.443 192.374 207.286 195.027 206.265C196.356 205.753 197.488 205.283 198.352 204.885C198.784 204.685 199.132 204.512 199.396 204.366C199.528 204.294 199.63 204.233 199.705 204.186C199.781 204.137 199.811 204.114 199.811 204.114L199.909 204.021C200.162 203.748 200.547 203.046 200.704 200.862C200.88 198.424 200.746 194.659 200.318 188.699C198.865 168.396 196.073 157.643 190.036 148.198L189.441 147.288C186.266 142.525 178.432 130.777 172.035 121.181C158.453 100.809 137.87 79.8218 122.945 70.9707C118.852 68.543 116.209 67.1212 114.014 66.3154C112.098 65.612 110.501 65.3718 108.523 65.415C105.856 67.3231 102.587 68.4492 99.0586 68.4492C90.0599 68.4492 82.7666 61.1509 82.7666 52.1504C82.7668 43.15 90.06 35.8525 99.0586 35.8525C108.057 35.8526 115.35 43.1501 115.351 52.1504C115.351 52.9792 115.287 53.7943 115.167 54.5908C115.522 54.9967 116.043 55.46 116.829 56.0059C117.992 56.813 119.613 57.7245 121.885 58.8789C131.817 63.928 146.422 73.2127 155.984 80.5508C157.622 81.8071 159.186 82.8244 160.384 83.4678C160.372 82.9953 160.349 82.4518 160.311 81.8447C160.163 79.5116 159.823 76.3938 159.325 73.0664L159.131 71.7256C158.142 64.7075 156.942 53.1481 156.373 45.0771C156.065 40.7044 155.809 37.597 155.517 35.3809C155.337 34.0148 155.152 33.0874 154.977 32.459C146.971 31.426 140.788 24.5855 140.788 16.2979C140.788 7.2976 148.082 4.94976e-05 157.08 0C166.079 0 173.372 7.29757 173.372 16.2979C173.372 21.8575 170.587 26.7639 166.346 29.7031C165.913 35.9688 166.677 46.8236 168.259 58.3604C169.919 70.4695 172.444 83.0633 175.283 91.5156C181.847 111.057 189.757 126.073 202.212 140.336C214.7 154.637 231.828 168.263 256.956 184.92C262.196 188.393 273.794 194.943 284.459 200.652C289.778 203.5 294.834 206.121 298.709 208.026C300.649 208.981 302.275 209.746 303.481 210.269C303.488 210.271 303.494 210.274 303.5 210.276C303.196 209.008 302.614 207.225 301.71 204.926C293.656 184.429 289.794 162.929 288.76 133.282C288.412 123.329 288.181 116.925 287.85 112.698C287.579 109.248 287.248 107.522 286.893 106.581C278.346 103.693 272.19 95.6098 272.19 86.082C272.191 74.1352 281.872 64.4492 293.815 64.4492C305.759 64.4493 315.44 74.1353 315.44 86.082C315.44 95.6095 309.284 103.691 300.739 106.579L300.665 106.623V121.14C300.665 173.765 314 215.061 339.977 243.95L342.231 246.466C365.122 272.105 375.738 286.996 387.876 310.298L393.932 321.926L397.412 315.742C398.854 313.177 400.161 310.731 401.104 308.861C401.576 307.924 401.947 307.15 402.196 306.586C402.322 306.302 402.405 306.095 402.453 305.962C402.459 305.946 402.463 305.932 402.467 305.921C402.489 305.765 402.521 305.647 402.538 305.587C402.574 305.462 402.616 305.35 402.651 305.263C402.722 305.088 402.811 304.902 402.901 304.725C403.085 304.364 403.339 303.909 403.642 303.389C404.251 302.342 405.114 300.935 406.145 299.296C408.21 296.013 410.986 291.741 413.845 287.428C416.703 283.114 419.651 278.748 422.061 275.279C423.264 273.546 424.34 272.028 425.205 270.849C426.037 269.715 426.756 268.78 427.216 268.308L428.372 267.098C434.35 260.748 443.193 249.977 451.212 239.557C455.481 234.009 459.497 228.586 462.701 224.016C465.936 219.402 468.26 215.773 469.226 213.765C476.329 198.985 482.753 175.388 484.701 156.821C485.697 147.344 486.24 135.612 486.331 125.568C486.377 120.548 486.31 115.972 486.132 112.326C485.988 109.377 485.772 107.177 485.529 105.846C477.976 102.474 472.706 94.8965 472.706 86.082C472.706 74.1353 482.387 64.4495 494.331 64.4492C506.275 64.4492 515.957 74.1352 515.957 86.082C515.957 96.0539 509.213 104.444 500.041 106.95C499.934 107.289 499.824 107.729 499.718 108.306C499.511 109.43 499.337 110.958 499.182 113.069C498.872 117.293 498.655 123.628 498.36 133.299C497.602 158.12 496.786 164.586 492.021 183.127C490.526 188.942 488.897 194.755 487.476 199.44C486.082 204.035 484.825 207.757 484.069 209.228L484.07 209.229C483.843 209.671 483.659 210.067 483.511 210.414C483.587 210.387 483.665 210.36 483.745 210.33C484.974 209.875 486.564 209.201 488.445 208.341C492.202 206.623 497.019 204.211 502.231 201.452C512.663 195.931 524.575 189.078 532.621 183.732C560.731 165.056 578.655 149.564 590.18 134.157C599.977 121.057 606.374 110.055 610.936 96.8145C615.51 83.5357 618.272 67.9101 620.67 45.5078L621.029 42.0273C621.705 35.161 621.819 31.6111 621.412 29.1006C617.633 26.1188 615.201 21.4927 615.201 16.2979C615.201 7.29759 622.495 3.29984e-05 631.493 0ZM385.673 695.249C385.855 695.276 386.036 695.301 386.218 695.326C385.975 695.292 385.732 695.256 385.488 695.22L385.673 695.249ZM206.067 159.638L206.645 161.172C207.227 162.694 207.889 165.853 208.506 169.531C209.136 173.288 209.751 177.801 210.201 182.172C211.801 197.717 216.982 214.546 223.146 224.552C224.445 226.66 226.435 229.146 230.646 233.543C234.854 237.935 241.198 244.153 251.144 253.718C252.57 255.089 257.484 259.202 262.083 262.857C297.908 291.326 333.778 325.47 348.374 345.093C357.389 357.214 364.148 374.464 367.087 392.614C370.53 413.889 369.057 430.96 361.084 464.375C359.218 472.19 357.877 478.196 357.123 482.886C356.364 487.609 356.238 490.797 356.669 493.059C357.074 495.184 357.967 496.483 359.457 497.522C361.081 498.654 363.472 499.519 367.009 500.483C370.722 501.496 374.57 503.583 377.502 505.869C378.972 507.015 380.274 508.26 381.229 509.507C382.137 510.694 382.938 512.153 382.938 513.683C382.937 514.445 382.703 515.451 381.772 516.14C380.973 516.731 380.021 516.8 379.321 516.773C377.895 516.72 375.855 516.174 373.189 515.317C369.294 514.065 364.285 512.706 362.097 512.292C358.699 511.65 355.796 510.524 353.533 508.578C351.243 506.607 349.782 503.945 349.013 500.558C347.514 493.959 348.558 484.195 351.457 470.072C354.33 456.076 356 441.496 356.606 425.027C357.006 414.166 357.12 407.767 356.745 402.614C356.421 398.157 355.728 394.606 354.486 389.849L353.92 387.729C347.232 363.219 334.012 344.49 312.594 330.372C291.104 316.207 261.265 306.62 221.267 300.664C191.542 296.237 173.946 291.228 160.343 283.038L159.038 282.235C156.017 280.334 153.133 278.611 150.928 277.369C150.179 276.947 149.517 276.587 148.96 276.295C148.995 276.967 149.067 277.873 149.193 279.085C149.73 284.236 151.133 294.078 153.854 312.877L154.562 317.714C169.504 418.604 189.175 477.167 230.695 545.447C254.063 583.875 287.854 622.162 325.957 653.352C352.14 674.782 376.06 685.926 394.673 685.926C400.202 685.926 407.964 684.269 416.041 681.513C424.09 678.766 432.269 674.99 438.616 670.881C473.685 648.174 522.775 598.056 549.151 557.976C553.489 551.382 560.165 540.591 565.938 530.988C568.822 526.189 571.475 521.698 573.492 518.187C575.556 514.593 576.85 512.202 577.134 511.478C577.954 509.381 582.384 499.701 586.952 490.008C607.673 446.027 628.111 367.466 636.684 298.601C637.603 291.215 638.305 285.812 638.706 281.92C638.907 279.976 639.028 278.451 639.065 277.271C639.087 276.603 639.077 276.087 639.052 275.693C638.703 275.895 638.274 276.167 637.746 276.525C636.903 277.097 635.994 277.749 634.826 278.555C625.712 284.845 617.973 289.062 607.899 292.376C597.88 295.673 585.608 298.057 567.473 300.77C527.399 306.766 497.24 316.473 475.592 330.574C454.012 344.631 440.818 363.098 434.69 386.854C430.085 404.713 430.249 433.501 435.254 461.34C437.39 473.223 439.169 487.513 439.174 493.11C439.178 497.397 439.063 500.31 438.283 502.613C437.45 505.077 435.928 506.669 433.779 508.522L433.778 508.521C430.687 511.188 426.146 513.088 422.421 513.13L422.422 513.131C421.154 513.145 419.506 513.397 417.878 513.817C416.24 514.24 414.775 514.793 413.833 515.333C412.471 516.114 411.306 516.736 410.326 517.167C409.395 517.577 408.414 517.916 407.488 517.928C406.989 517.934 406.427 517.846 405.888 517.559C405.333 517.263 404.936 516.826 404.67 516.35C404.194 515.498 404.122 514.486 404.122 513.679C404.122 513.117 404.292 512.627 404.453 512.27C404.623 511.895 404.844 511.536 405.079 511.205C405.548 510.544 406.178 509.842 406.881 509.143C408.294 507.736 410.177 506.167 412.143 504.709C414.111 503.249 416.216 501.859 418.089 500.824C419.024 500.307 419.933 499.861 420.759 499.539C421.538 499.235 422.428 498.966 423.262 498.966L423.31 498.963C423.342 498.96 423.386 498.953 423.441 498.943C423.555 498.923 423.701 498.889 423.878 498.838C424.235 498.734 424.669 498.575 425.153 498.363C426.124 497.938 427.194 497.347 428.104 496.707L428.419 496.47C429.958 495.224 430.975 493.042 430.916 488.348C430.853 483.306 429.549 475.896 426.886 464.872C420.208 437.223 418.005 414.278 420.647 394.126C423.296 373.934 430.796 356.647 443.357 340.313C448.286 333.905 460.1 321.728 473.598 308.742C487.131 295.722 502.485 281.768 514.574 271.774C539.477 251.189 554.297 237.412 563.291 224.685C572.194 212.085 575.435 200.444 576.895 183.934L577.063 182.112C577.474 177.86 578.005 173.614 578.554 170.031C579.167 166.028 579.836 162.619 580.446 161.041L580.62 160.577C580.726 160.284 580.823 159.995 580.912 159.715C580.888 159.733 580.863 159.751 580.838 159.77C578.833 161.245 576.151 163.418 573.284 165.93C564.453 173.664 550.378 184.16 537.933 192.711C531.705 196.99 525.855 200.802 521.244 203.553C518.942 204.926 516.92 206.052 515.3 206.841C514.492 207.234 513.752 207.56 513.107 207.791C512.622 207.965 512.06 208.133 511.507 208.188C511.492 208.195 511.475 208.202 511.457 208.21C511.259 208.295 510.965 208.433 510.571 208.629C509.79 209.017 508.702 209.588 507.383 210.305C504.748 211.735 501.24 213.714 497.499 215.895C477.577 227.508 453.834 252.245 428.387 288.212C422.181 296.983 414.55 310.006 408.466 321.633C405.426 327.441 402.789 332.869 400.918 337.215C399.981 339.39 399.247 341.268 398.752 342.771C398.234 344.344 398.048 345.301 398.048 345.732C398.048 347.554 396.761 349.563 394.583 349.687L394.369 349.692C392.248 349.692 390.691 347.906 390.69 345.928C390.69 345.963 390.681 345.784 390.526 345.259C390.388 344.787 390.173 344.17 389.879 343.411C389.292 341.896 388.432 339.916 387.355 337.588C385.206 332.937 382.236 326.986 378.975 320.749C372.435 308.244 364.808 294.75 360.336 288.338C350.179 273.771 337.134 258.092 324.755 245.052C312.314 231.947 300.742 221.718 293.521 217.84C289.828 215.856 283.624 212.525 279.734 210.438L279.733 210.438C259.899 199.791 230.628 180.169 215.617 167.443C211.915 164.305 209.127 161.964 207.068 160.343C206.697 160.05 206.352 159.784 206.033 159.543C206.045 159.574 206.056 159.606 206.067 159.638ZM481.464 650.574C480.063 651.824 478.641 653.081 477.189 654.349C478.461 653.238 479.712 652.137 480.944 651.04C481.118 650.885 481.291 650.729 481.464 650.574ZM235.728 574.747C235.676 574.773 235.607 574.79 235.522 574.803C235.606 574.791 235.674 574.774 235.726 574.749L235.728 574.747ZM235.783 574.185C235.801 574.253 235.816 574.314 235.826 574.37C235.806 574.259 235.769 574.122 235.717 573.962L235.783 574.185ZM560.377 558.156C560.266 558.329 560.157 558.501 560.048 558.672C560.183 558.462 560.317 558.25 560.454 558.037L560.377 558.156ZM625.742 545.647C624.424 546.358 623.039 547.089 621.587 547.84L623.715 546.729C624.407 546.364 625.083 546.003 625.742 545.647ZM141.415 540.62C141.218 540.88 141.013 541.135 140.802 541.383L141.114 541.006C141.216 540.879 141.316 540.75 141.415 540.62ZM639.572 537.18C639.388 537.317 639.2 537.455 639.008 537.595C639.392 537.317 639.76 537.042 640.112 536.772L639.572 537.18ZM431.934 507.451C431.75 507.596 431.561 507.737 431.368 507.875L431.654 507.666C431.749 507.595 431.842 507.523 431.934 507.451ZM432.438 493.382C432.411 493.488 432.386 493.593 432.357 493.696C432.327 493.808 432.295 493.919 432.262 494.027C432.325 493.819 432.383 493.604 432.438 493.382ZM589.594 489.069L589.737 488.762C589.936 488.33 590.132 487.894 590.33 487.456C590.084 487.998 589.839 488.536 589.594 489.069ZM605.93 476.266C605.931 476.271 605.935 476.275 605.938 476.279C605.935 476.273 605.931 476.268 605.929 476.262L605.93 476.266ZM611.334 473.828C611.431 473.767 611.53 473.707 611.628 473.644L611.671 473.615C611.558 473.688 611.445 473.758 611.334 473.828ZM104.816 449.377L103.369 448.932C103.254 448.897 103.139 448.865 103.027 448.832C103.579 448.996 104.174 449.176 104.816 449.377ZM64.7412 427.99C64.7273 428.021 64.714 428.052 64.7002 428.083C64.7787 427.907 64.8598 427.732 64.9434 427.559L64.7412 427.99ZM689.328 427.99C689.314 428.021 689.301 428.052 689.287 428.083C689.366 427.907 689.447 427.732 689.53 427.559L689.328 427.99ZM154.992 386.242L155.005 386.232C155.012 386.225 155.017 386.216 155.024 386.208C155.014 386.22 155.003 386.232 154.992 386.242ZM633.78 378.839C633.747 378.973 633.718 379.106 633.687 379.236C633.723 379.083 633.759 378.926 633.799 378.767L633.78 378.839ZM91.9121 317.004C92.0011 317.341 92.0925 317.676 92.1826 318.01C92.088 317.659 91.9927 317.308 91.8994 316.954L91.9121 317.004ZM310.046 315.499C310.034 315.472 310.021 315.442 310.002 315.409L309.996 315.4C310.017 315.436 310.033 315.47 310.046 315.499ZM495.164 309.111C492.978 309.992 490.877 310.818 488.949 311.556L491.96 310.388C493 309.979 494.071 309.552 495.164 309.111ZM585.062 216.252C584.03 216.025 583.575 216.037 583.354 216.084C583.243 216.108 583.093 216.151 582.775 216.517C582.396 216.953 581.971 217.624 581.271 218.77C574.243 230.272 569.269 237.58 561.843 245.258C554.458 252.892 544.685 260.852 528.137 273.742C518.222 281.465 505.921 291.849 496.244 300.446C491.647 304.531 487.661 308.197 484.811 310.973C487.519 309.977 490.853 308.693 494.417 307.257C512.483 299.978 545.268 291.747 572.671 287.583C593.287 284.449 608.637 279.852 620.688 272.814C632.697 265.802 641.553 256.292 649.066 243.116C652.544 237.018 655.381 231.116 657.14 226.572C658.023 224.29 658.608 222.417 658.879 221.064C658.94 220.762 658.978 220.502 659.005 220.282C658.211 220.273 657.106 220.308 655.747 220.391C653.26 220.543 650.025 220.845 646.508 221.271L644.984 221.462C633.824 222.899 625.282 222.932 613.329 221.595C604.427 220.599 593.613 218.746 589.275 217.436C587.395 216.868 586.073 216.475 585.062 216.252ZM204.292 215.674C203.543 215.539 202.335 215.624 200.08 216.122C197.872 216.61 194.955 217.417 190.892 218.519C177.711 222.092 156.827 223.171 140.09 221.247L138.483 221.051C135.718 220.694 133.676 220.438 132.147 220.306C130.692 220.179 129.886 220.187 129.44 220.254C129.438 220.273 129.435 220.292 129.434 220.313C129.412 220.563 129.405 220.882 129.405 221.337C129.405 221.722 129.532 222.462 129.882 223.608C130.219 224.712 130.72 226.054 131.363 227.58C132.648 230.629 134.454 234.311 136.516 238.121C140.658 245.777 145.713 253.736 149.469 258.016C163.647 274.174 182.59 282.762 215.84 287.567C243.669 291.59 276.046 299.711 294.04 307.223C297.208 308.546 300.217 309.78 302.783 310.814C300.541 308.686 297.786 306.145 294.766 303.42C286.4 295.87 276.089 286.971 269.162 281.526C227.543 248.813 216.787 238.291 208.072 221.006C207.013 218.904 206.394 217.615 205.758 216.735C205.222 215.994 204.836 215.772 204.292 215.674ZM699.025 308.536C699.099 308.243 699.175 307.952 699.246 307.66L699.26 307.603C699.184 307.913 699.104 308.224 699.025 308.536ZM81.4697 302.636C81.6341 303.196 81.8005 303.794 81.9717 304.435L81.7188 303.504C81.6351 303.204 81.5519 302.916 81.4697 302.636ZM79.292 297.154C79.3533 297.258 79.4147 297.363 79.4746 297.471C79.3549 297.255 79.2322 297.049 79.1064 296.851L79.292 297.154ZM78.3066 295.748C78.4483 295.919 78.5857 296.096 78.7188 296.279L78.5166 296.009C78.448 295.92 78.3775 295.834 78.3066 295.748ZM700.617 295.29C700.653 295.364 700.688 295.437 700.72 295.512C700.656 295.363 700.584 295.216 700.504 295.07L700.617 295.29ZM272.481 281.615C272.232 281.414 271.987 281.216 271.744 281.021L271.656 280.952C271.927 281.169 272.202 281.39 272.481 281.615ZM23.1045 272.619C23.2057 272.674 23.3065 272.73 23.4062 272.787L23.1045 272.619C23.0034 272.564 22.9014 272.51 22.7988 272.457L23.1045 272.619ZM765.896 272.618C765.794 272.673 765.694 272.73 765.594 272.787L765.896 272.618C765.997 272.563 766.098 272.51 766.201 272.457L765.896 272.618ZM22.1738 272.156C22.2793 272.204 22.3842 272.253 22.4883 272.303L22.1738 272.156C22.0685 272.109 21.9622 272.062 21.8555 272.017L22.1738 272.156ZM766.826 272.155C766.721 272.203 766.616 272.253 766.512 272.303L766.826 272.155C766.932 272.108 767.038 272.062 767.145 272.017L766.826 272.155ZM20.2051 271.436C20.3615 271.48 20.5167 271.528 20.6709 271.577C20.6279 271.563 20.5852 271.549 20.542 271.535C20.4302 271.5 20.318 271.468 20.2051 271.436ZM237.341 243.117C238.108 243.871 238.912 244.658 239.755 245.48C238.871 244.618 238.03 243.794 237.229 243.007L237.341 243.117ZM215.51 229.792C215.837 230.272 216.172 230.751 216.516 231.23L216.007 230.511C215.839 230.271 215.673 230.032 215.51 229.792ZM222.046 226.535C222.08 226.585 222.116 226.635 222.15 226.686C222.103 226.616 222.055 226.547 222.009 226.479L222.046 226.535ZM128.271 225.126C128.283 225.159 128.295 225.192 128.307 225.226C128.287 225.17 128.268 225.114 128.249 225.059L128.271 225.126ZM127.442 221.907C127.448 221.959 127.457 222.012 127.465 222.065C127.457 222.01 127.449 221.956 127.442 221.902V221.907ZM213.489 207.431C213.546 207.607 213.604 207.782 213.661 207.958C213.595 207.754 213.527 207.549 213.462 207.344L213.489 207.431ZM113.348 205.679L113.365 205.672C113.384 205.661 113.401 205.65 113.417 205.638L113.348 205.679ZM113.624 204.48C113.621 204.608 113.617 204.725 113.611 204.832L113.612 204.833C113.624 204.619 113.629 204.364 113.628 204.069C113.628 204.217 113.627 204.353 113.624 204.48ZM83.1035 191.701C83.7086 192.086 84.3327 192.472 84.9707 192.86C84.3004 192.452 83.6459 192.045 83.0117 191.642L83.1035 191.701ZM529.813 187.926C530.048 187.778 530.281 187.633 530.512 187.486L530.564 187.452C530.317 187.61 530.066 187.767 529.813 187.926ZM240.254 183.473C241.05 184.025 241.852 184.578 242.659 185.131C243.373 185.62 244.09 186.108 244.811 186.597C244.899 186.657 244.988 186.716 245.077 186.776C243.451 185.676 241.841 184.573 240.254 183.473ZM536.226 183.728L536.341 183.651C537.095 183.144 537.842 182.638 538.582 182.135C537.805 182.663 537.019 183.194 536.226 183.728ZM234.324 179.295C234.45 179.385 234.577 179.474 234.703 179.564C233.903 178.992 233.112 178.424 232.331 177.857L234.324 179.295ZM721.146 179.091C721.496 178.766 721.849 178.436 722.206 178.101L722.244 178.064C721.874 178.413 721.508 178.754 721.146 179.091ZM36.3545 175.657C36.6776 175.681 37.0028 175.699 37.3301 175.707L36.8271 175.688C36.6691 175.679 36.5116 175.669 36.3545 175.657ZM45.6104 174.112C45.2436 174.271 44.8711 174.418 44.4932 174.555L45.0566 174.342C45.2427 174.268 45.4272 174.191 45.6104 174.112ZM294.19 170.004C294.314 170.734 294.441 171.459 294.571 172.18L294.19 170.004C294.067 169.274 293.948 168.539 293.831 167.8L294.19 170.004ZM221.454 169.638C221.754 169.876 222.058 170.113 222.365 170.354C221.874 169.968 221.392 169.587 220.919 169.209C221.096 169.351 221.274 169.495 221.454 169.638ZM219.863 168.362C219.945 168.429 220.028 168.494 220.11 168.561C219.992 168.465 219.873 168.37 219.756 168.274C219.792 168.304 219.827 168.333 219.863 168.362ZM587.539 166.603C587.51 166.747 587.482 166.891 587.454 167.036C587.484 166.884 587.513 166.732 587.544 166.581L587.539 166.603ZM493.961 165.346C494.027 164.955 494.094 164.565 494.156 164.174C494.292 163.324 494.419 162.473 494.537 161.613L494.353 162.897C494.231 163.716 494.1 164.53 493.961 165.346ZM588.032 164.377C587.913 164.874 587.797 165.376 587.688 165.884L587.841 165.194C587.903 164.92 587.967 164.648 588.032 164.377ZM209.125 159.424C209.978 160.109 210.936 160.896 212.007 161.787C210.838 160.814 209.803 159.967 208.893 159.239C208.969 159.3 209.047 159.361 209.125 159.424ZM582.499 161.262L582.673 160.768C582.7 160.688 582.725 160.608 582.751 160.528C582.672 160.77 582.588 161.015 582.499 161.262ZM770.336 157.09C770.312 157.555 770.271 158.016 770.216 158.472C770.291 157.852 770.339 157.223 770.355 156.587L770.336 157.09ZM595.646 146.857C595.614 146.906 595.582 146.954 595.55 147.003C595.709 146.759 595.871 146.516 596.034 146.273L595.646 146.857ZM189.158 126.275C189.392 126.642 189.63 127.007 189.868 127.372C189.6 126.961 189.334 126.549 189.07 126.136L189.158 126.275ZM298.704 126.071C298.711 126.483 298.721 126.894 298.729 127.305C298.721 126.881 298.711 126.457 298.704 126.032V126.071ZM94.6562 107.737C94.6337 107.791 94.6129 107.845 94.5908 107.898C94.6663 107.715 94.7436 107.532 94.8252 107.352L94.6562 107.737ZM615.254 89.6025C615.129 90.056 615.003 90.5066 614.875 90.9541C615.131 90.0589 615.381 89.152 615.625 88.2324L615.254 89.6025ZM313.424 86.8955C313.416 87.089 313.404 87.2816 313.391 87.4736C313.413 87.1479 313.43 86.8201 313.437 86.4902L313.424 86.8955ZM628.406 85.0869C628.448 85.0517 628.491 85.0164 628.534 84.9795L628.562 84.9551C628.51 85.0005 628.457 85.0439 628.406 85.0869ZM162.38 84.71L162.383 84.6709C162.384 84.636 162.384 84.6005 162.385 84.5645C162.383 84.6141 162.382 84.6626 162.38 84.71ZM126.146 70.6025C126.639 70.9202 127.135 71.25 127.637 71.5898L127.638 71.5889C127.136 71.2489 126.639 70.92 126.146 70.6025ZM482.589 70.3496C482.542 70.3848 482.495 70.4204 482.448 70.4561C482.62 70.325 482.794 70.1967 482.971 70.0713L482.589 70.3496ZM160.503 66.7832C160.641 67.9109 160.777 68.9862 160.911 69.9902L160.709 68.4326C160.641 67.8971 160.572 67.3472 160.503 66.7832ZM84.8096 53.2705C84.8181 53.3806 84.8279 53.4903 84.8389 53.5996C84.8152 53.3636 84.7973 53.1259 84.7852 52.8867L84.8096 53.2705ZM633.051 30.7891L633.053 30.79C633.053 30.7884 633.054 30.7868 633.054 30.7852C633.055 30.7646 633.057 30.7362 633.059 30.7021L633.058 30.7012C633.057 30.7231 633.053 30.7524 633.051 30.7891ZM143.539 11.7119C143.464 11.9335 143.394 12.1575 143.33 12.3838L143.431 12.0469C143.465 11.9349 143.502 11.8226 143.539 11.7119Z" fill="white"/>
</svg>
