<svg width="1840" height="1626" viewBox="0 0 1840 1626" fill="none" xmlns="http://www.w3.org/2000/svg">
<path d="M917.82 1431.47C981.143 1431.47 994.472 1432.43 993.583 1436.93C992.989 1439.93 986.963 1445.37 980.194 1449C961.469 1459.06 867.839 1457.15 853.506 1446.41C847.973 1442.27 842.892 1437.22 842.215 1435.18C841.471 1432.95 871.661 1431.47 917.82 1431.47Z" fill="white"/>
<path d="M839.016 1331.47C854.987 1326.77 972.379 1326.68 994.469 1331.35C1004.21 1333.41 1029.89 1336.37 1051.53 1337.93L1090.89 1340.77L1079.24 1348.63C1069.09 1355.48 1059.7 1356.66 1006.43 1357.75C972.796 1358.44 934.648 1358.92 921.661 1358.82C908.674 1358.71 871.598 1358.71 839.264 1358.81C791.829 1358.96 777.585 1357.69 765.472 1352.22C757.219 1348.48 750.466 1344.19 750.466 1342.68C750.468 1341.17 767.732 1338.81 788.837 1337.44C809.943 1336.07 832.522 1333.38 839.016 1331.47Z" fill="white"/>
<path d="M914.424 1222.09C916.852 1215.75 917.376 1215.77 922.295 1222.52C925.88 1227.44 927.545 1242.42 927.506 1269.44C927.443 1310.44 923.322 1326.52 915.817 1315.06C911.492 1308.45 910.358 1232.72 914.424 1222.09Z" fill="white"/>
<path d="M1360.47 820.536C1368.81 817.592 1421.54 817.348 1429 820.217C1441.23 824.921 1430.43 829.668 1407.51 829.668C1376.86 829.668 1350.75 840 1320.23 864.202C1306.65 874.968 1291.67 885.808 1286.94 888.294C1276.06 894.008 1233.41 894.122 1206.2 888.507C1183.08 883.736 1132.21 861.93 1132.21 856.787C1132.21 854.984 1166.31 853.914 1207.97 854.411L1283.73 855.318L1319.15 838.97C1338.63 829.98 1357.23 821.685 1360.47 820.536Z" fill="white"/>
<path d="M405.1 820.225C407.82 819.005 425.982 818.535 445.462 819.19C478.241 820.287 483.523 821.677 516.302 837.845C516.313 837.851 545.954 855.318 551.722 855.318C557.492 855.318 627.709 854.34 627.709 854.34C678.426 853.689 702.87 854.699 701.221 857.375C696.706 864.699 660.457 880.942 635.427 886.857C606.937 893.594 566.696 894.572 551.788 888.886C546.133 886.731 530.521 876.044 517.097 865.141C487.281 840.923 458.961 829.668 427.839 829.668C405.709 829.668 394.474 825.004 405.1 820.225Z" fill="white"/>
<path fill-rule="evenodd" clip-rule="evenodd" d="M1475.5 0C1494 0 1509 14.9985 1509 33.5C1509 52.0015 1494 67 1475.5 67C1475.16 67 1474.83 66.9933 1474.49 66.9834C1474.49 67.0065 1474.49 67.0295 1474.49 67.0527C1474.42 68.6825 1471.8 94.8745 1468.67 125.261C1465.53 155.647 1462.92 184.778 1462.88 189.999C1462.81 198.712 1463.36 198.993 1469.68 193.444C1483.62 181.207 1531.63 150.051 1553.95 138.753C1566.13 132.587 1572.07 128.925 1574.81 124.85C1574.28 122.484 1574 120.025 1574 117.5C1574 98.9985 1589 84 1607.5 84C1626 84 1641 98.9985 1641 117.5C1641 136.002 1626 151 1607.5 151C1598.25 151 1589.88 147.253 1583.82 141.194C1578.69 142.133 1572.44 145.216 1561.1 151.274C1513.58 176.673 1472.89 217.509 1429.74 283.111C1419.74 298.304 1403.78 321.784 1394.27 335.292C1373.76 364.392 1366.99 394.356 1369.02 446.881L1370.31 480.424L1401.8 489.686C1442.76 501.733 1502.33 502.653 1531.31 491.683C1550.09 484.575 1550.83 483.687 1557.48 460.014C1565.38 431.908 1572.99 367.789 1572.99 329.325C1572.99 313.168 1572.79 306.698 1569.28 301.432C1553.93 295.675 1543 280.865 1543 263.5C1543 241.132 1561.13 223 1583.5 223C1605.87 223 1624 241.132 1624 263.5C1624 281.341 1612.46 296.487 1596.44 301.887C1593.7 306.092 1592.31 315.412 1590.85 335.557C1589.47 354.459 1585.78 388.603 1582.64 411.424C1576.8 453.83 1575.42 478.451 1578.86 478.451C1579.93 478.45 1593.65 472.74 1609.36 465.768C1643.88 450.44 1661.66 438.097 1694.03 406.973C1706.8 394.696 1712.9 388.296 1714.96 383.665C1711.17 376.975 1709 369.241 1709 361C1709 335.595 1729.59 315 1755 315C1780.41 315 1801 335.595 1801 361C1801 386.405 1780.41 407 1755 407C1745.88 407 1737.38 404.345 1730.23 399.767C1724.81 402.192 1716.76 408.756 1702.29 421.79C1669.09 451.675 1646.54 466.798 1603.53 488.009C1573.48 502.831 1572.87 503.431 1557.7 533.284C1535.7 576.575 1531.86 592.104 1507.82 734.958C1495.95 805.497 1484.51 869.427 1482.41 877.023C1477.71 893.984 1477.54 900.701 1481.8 900.701C1487.92 900.701 1574.94 840.757 1584.04 830.268C1602.88 808.555 1626.59 752.858 1636.29 707.535C1639.36 693.176 1640.05 689.257 1635 683.538C1621.94 676.819 1613 663.203 1613 647.5C1613 625.132 1631.13 607 1653.5 607C1675.87 607 1694 625.132 1694 647.5C1694 667.951 1678.84 684.857 1659.15 687.605C1654.73 691.282 1651.7 695.193 1651.7 697.622C1651.7 708.869 1635.19 771.626 1627.49 789.633C1623.38 799.246 1620.65 807.734 1621.41 808.504C1622.71 809.806 1666.13 780.497 1695.5 758.493C1711.33 746.639 1751.77 710.664 1767.58 694.378C1772.74 689.064 1775.8 684.631 1777.29 679.915C1774.56 675.064 1773 669.464 1773 663.5C1773 644.998 1788 630 1806.5 630C1825 630 1840 644.998 1840 663.5C1840 682.002 1825 697 1806.5 697C1801.79 697 1797.31 696.026 1793.24 694.272C1786.59 697.491 1776.13 706.782 1756.49 726.178C1711.97 770.151 1673.83 798.351 1524.08 898.018L1469.27 934.501L1460.52 961.994C1442.76 1017.78 1415.55 1107.97 1415.56 1111.03C1415.57 1112.76 1423.1 1109.06 1432.3 1102.81C1446.96 1092.85 1483.43 1075 1546.19 1047.06C1556.35 1042.54 1573.73 1036.89 1584.83 1034.5C1595.94 1032.11 1605.58 1028.11 1606.27 1025.61C1606.46 1024.9 1606.81 1023.62 1607.26 1021.94C1607.09 1020.32 1607 1018.67 1607 1017C1607 991.595 1627.59 971 1653 971C1678.41 971 1699 991.595 1699 1017C1699 1042.41 1678.41 1063 1653 1063C1639.42 1063 1627.21 1057.11 1618.79 1047.75C1613.72 1044.59 1606.24 1046.19 1578.9 1055.13C1559.41 1061.5 1524.7 1076.16 1501.76 1087.72C1427.93 1124.9 1391.73 1157.73 1362.74 1213.76C1352.83 1232.93 1331.24 1268.99 1314.77 1293.89C1298.3 1318.8 1285.9 1340.26 1287.22 1341.58C1291.69 1346.06 1400.15 1305.32 1447.05 1281.54C1475.56 1267.1 1493.88 1255.71 1503.04 1246.65C1502.36 1243.71 1502 1240.65 1502 1237.5C1502 1215.13 1520.13 1197 1542.5 1197C1564.87 1197 1583 1215.13 1583 1237.5C1583 1259.87 1564.87 1278 1542.5 1278C1528.95 1278 1516.95 1271.34 1509.6 1261.12C1506.85 1262.59 1503.62 1264.6 1499.67 1267.23C1472.01 1285.59 1412.26 1313.59 1359.37 1332.97C1284.7 1360.33 1265.19 1371.76 1235.1 1405.8C1173.02 1476.03 1135.44 1512.12 1063.34 1570.76C1045.36 1585.39 1005.31 1607.33 982.54 1615.01C943.397 1628.24 913.329 1629.4 875.336 1619.17C800.254 1598.93 735.652 1547.95 593.848 1397.03C576.476 1378.54 534.224 1353 508.431 1345.4C463.172 1332.06 357.259 1283.67 328.742 1263.31C328.062 1262.83 327.409 1262.37 326.781 1261.96C319.385 1271.7 307.679 1278 294.5 1278C272.132 1278 254 1259.87 254 1237.5C254 1215.13 272.132 1197 294.5 1197C316.868 1197 335 1215.13 335 1237.5C335 1241.18 334.505 1244.75 333.583 1248.14C347.645 1261.78 381.701 1279.06 449.397 1308.32C490.461 1326.06 545.177 1344.64 548.011 1341.8C549.237 1340.56 539.631 1322.95 526.66 1302.65C513.689 1282.34 490.847 1243.53 475.903 1216.4C448.764 1167.13 442.534 1159.97 391.903 1119.85C367.42 1100.44 297.482 1066.62 249.087 1050.78C237.063 1046.84 230.199 1044.79 225.956 1044.39C217.574 1055.68 204.142 1063 189 1063C163.595 1063 143 1042.41 143 1017C143 991.595 163.595 971 189 971C214.405 971 235 991.595 235 1017C235 1020.91 234.508 1024.71 233.588 1028.34C233.7 1028.38 233.813 1028.42 233.928 1028.45C237.718 1029.55 248.784 1032.5 258.524 1034.99C268.265 1037.49 281.547 1041.88 288.041 1044.76C338.916 1067.29 373.639 1084.64 395.265 1098.33C409.203 1107.16 421.096 1113.81 421.695 1113.1C422.294 1112.4 415.249 1087.85 406.044 1058.55C396.835 1029.25 384.501 989.199 378.629 969.551L367.956 933.829L339.809 914.304C324.326 903.566 292.114 882.35 268.226 867.157C171.297 805.513 106.904 756.394 64.333 711.624C55.6614 702.504 49.8185 697.298 45.1406 694.92C41.5146 696.264 37.5934 697 33.5 697C14.9985 697 0 682.002 0 663.5C0 644.998 14.9985 630 33.5 630C52.0015 630 67 644.998 67 663.5C67 670.4 64.9123 676.811 61.3369 682.14C65.0926 688.665 72.7632 696.569 88.3125 711.856C127.38 750.269 212.312 814.178 217.449 809.029C218.26 808.216 214.608 796.989 209.334 784.081C204.056 771.173 196.024 744.61 191.479 725.057C186.054 701.707 183.507 693.114 177.832 687.066C159.63 683.097 146 666.892 146 647.5C146 625.132 164.132 607 186.5 607C208.868 607 227 625.132 227 647.5C227 662.669 218.659 675.887 206.314 682.826L199.117 691.048L208.851 730.585C218.764 770.876 232.14 802.249 248.713 824.1C257.568 835.776 349.585 900.699 357.282 900.701C360.856 900.701 360.16 895.306 352.706 865.185C350.825 857.588 342.159 806.977 333.445 752.716C324.732 698.455 315.586 642.518 313.122 628.409C307.793 597.912 295.861 564.866 277.498 529.752C265.074 505.995 262.062 503.084 236.658 490.29C194.497 469.059 170.829 453.329 138.534 425.086C120.231 409.08 112.726 402.987 105.994 401.409C99.4601 404.973 91.967 407 84 407C58.5949 407 38 386.405 38 361C38 335.595 58.5949 315 84 315C109.405 315 130 335.595 130 361C130 369.531 127.675 377.517 123.628 384.365C125.017 390.414 129.392 394.665 140.053 404.632C150.017 413.953 167.908 428.732 179.813 437.48C204.041 455.282 257.202 481.091 261.26 477.022C262.708 475.57 260.008 446.439 255.254 412.288C250.504 378.137 246.639 340.801 246.667 329.321C246.705 313.861 245.92 309.018 238.092 300.535C223.9 294.238 214 280.026 214 263.5C214 241.132 232.132 223 254.5 223C276.868 223 295 241.132 295 263.5C295 280.086 285.028 294.341 270.753 300.603C266.51 307.179 266.396 315.619 266.396 343.2C266.396 384.411 274.184 439.833 284.357 471.036C290.245 489.086 290.556 489.331 314.755 494.714C351.127 502.808 396.831 501.201 431.688 490.605C447.922 485.669 463.653 479.619 466.64 477.156C470.898 473.648 471.524 464.962 469.524 437.09C465.986 387.699 459.043 361.467 443.254 337.802C435.812 326.641 417.449 299.116 402.455 276.635C370.373 228.534 321.654 178.772 285.88 157.564C266.72 146.206 259.751 143.392 248.062 143.945C242.386 148.365 235.251 151 227.5 151C208.998 151 194 136.002 194 117.5C194 98.9985 208.998 84 227.5 84C246.002 84 261 98.9985 261 117.5C261 119.852 260.756 122.147 260.295 124.362C262.745 128.425 268.141 131.988 278.879 137.442C301.882 149.131 335.873 170.726 358.077 187.758C366.295 194.06 374.071 198.16 375.358 196.869C376.649 195.579 375.764 181.601 373.398 165.809C371.029 150.02 367.936 120.675 366.52 100.597C365.077 80.1291 364.082 70.9423 361.868 66.959C344.125 66.1079 330 51.4544 330 33.5C330 14.9985 344.998 0 363.5 0C382.002 0 397 14.9985 397 33.5C397 45.6988 390.479 56.3734 380.733 62.2314C377.861 91.8694 388.14 170.805 401.723 211.222C432.794 303.687 476.978 354.266 595.013 432.477C619.987 449.023 704.482 494.236 710.438 494.236C713.346 494.236 712.091 487.006 706.868 473.728C688.241 426.341 679.248 376.531 676.836 307.424C675.211 260.884 674.653 246.9 671.093 241.161C651.971 235.582 638 217.924 638 197C638 171.595 658.595 151 684 151C709.405 151 730 171.595 730 197C730 217.425 716.687 234.737 698.266 240.741L695.368 242.456V279.137C695.368 403.191 726.821 501.205 788.715 570.008C845.875 633.547 871.181 668.582 900.315 724.488L918.509 759.405L930.91 737.377C937.726 725.259 943.306 714.194 943.307 712.788C943.307 709.682 993.576 633.862 1000.05 627.209C1028.34 598.117 1089.57 518.586 1099.38 498.183C1116.29 463.01 1131.47 407.193 1136.09 363.228C1140.79 318.448 1141.21 252.656 1137.4 239.911C1120.2 233.252 1108 216.552 1108 197C1108 171.595 1128.59 151 1154 151C1179.41 151 1200 171.595 1200 197C1200 218.977 1184.59 237.351 1163.98 241.91C1160.8 247.66 1160.14 262.241 1158.76 307.483C1156.99 365.391 1155.11 380.181 1144.04 423.203C1137.07 450.334 1128.85 477.417 1125.78 483.384C1122.35 490.057 1121.8 494.236 1124.34 494.236C1134.06 494.235 1208.27 454.978 1246.34 429.69C1312.4 385.82 1354.93 349.171 1382.42 312.443C1428.73 250.55 1443.53 207.611 1454.79 102.436C1457.27 79.2788 1457.84 68.5856 1456.15 60.8457C1447.59 54.7768 1442 44.791 1442 33.5C1442 14.9985 1457 0 1475.5 0ZM503.739 384.049C469.079 354.681 467.462 354.144 475.298 374.605C477.636 380.715 481.26 402.32 483.35 422.611C487.151 459.528 499.45 499.685 514.365 523.884C520.985 534.622 534.118 548.327 580.73 593.137C584.257 596.527 595.945 606.294 606.705 614.842C690.587 681.47 774.279 761.165 808.121 806.642C828.712 834.313 844.32 873.981 851.117 915.934C859.047 964.906 855.737 1004.22 837.114 1082.23C819.629 1155.45 821.144 1163.39 854.328 1172.44C870.346 1176.8 888.21 1190.72 888.21 1198.84C888.21 1202.44 884.156 1202.28 871.483 1198.21C862.282 1195.25 850.33 1192 844.919 1190.98C814.926 1185.31 810.073 1163.96 823.702 1097.61C830.495 1064.53 834.435 1030.11 835.863 991.299C837.733 940.479 836.993 930.321 829.405 902.508C797.472 785.521 702.767 723.119 514.641 695.116C442.865 684.43 402.042 672.382 370.585 652.607C356.323 643.638 343.288 636.301 341.623 636.301C338.065 636.301 338.562 641.065 351.297 729.038C386.595 972.85 432.77 1112.51 532.044 1275.7C587.118 1366.23 666.686 1456.32 756.369 1529.7C818.007 1580.13 875.136 1607.08 920.406 1607.08C947.809 1607.08 995.417 1590.84 1025.95 1571.08C1108.77 1517.48 1224.28 1399.56 1286.41 1305.19C1306.85 1274.14 1349.15 1203.81 1352.45 1195.38C1354.3 1190.66 1364.59 1168.16 1375.34 1145.37C1424.19 1041.73 1472.19 857.146 1492.32 695.495C1500.91 626.487 1501.62 629.624 1480.65 644.095C1438.45 673.206 1409.7 682.662 1324.75 695.365C1136.25 723.557 1038.99 786.887 1009.66 900.52C998.637 943.261 999.116 1011.45 1010.91 1077.04C1015.91 1104.85 1020.01 1137.98 1020.03 1150.65C1020.05 1171.01 1018.77 1174.79 1009.01 1183.2C1002.46 1188.85 992.847 1192.78 985.394 1192.86C978.479 1192.94 968.396 1195.54 962.984 1198.64C950.379 1205.87 947.242 1205.91 947.242 1198.83C947.242 1192.54 978.93 1169.05 987.416 1169.05C990.332 1169.05 996.653 1166.28 1001.46 1162.9C1013.19 1154.67 1012.95 1135.04 1000.47 1083.38C969.313 954.441 980.286 870.827 1038.24 795.505C1060.85 766.113 1148 682.307 1204.43 635.678C1321.11 539.271 1345.26 505.124 1352.19 426.672C1354.18 404.147 1357.8 380.583 1360.22 374.312C1362.65 368.046 1363.74 362.02 1362.65 360.923C1361.55 359.832 1349.55 368.663 1335.97 380.552C1294.97 416.447 1204.69 478.451 1193.42 478.451C1192.12 478.451 1176.66 486.84 1159.06 497.093C1111.48 524.819 1055.36 583.453 995.603 667.871C966.18 709.437 923.629 790.711 923.629 805.344C923.629 807.869 921.858 809.937 919.693 809.937C917.529 809.936 915.758 808.074 915.758 805.801C915.757 795.598 865.104 698.775 843.766 668.191C795.843 599.495 720.847 520.53 685.529 501.572C676.871 496.924 662.33 489.118 653.211 484.229C606.968 459.418 538.64 413.622 503.739 384.049ZM487.21 511.008C477.753 492.247 479.319 492.531 441.526 502.768C410.349 511.216 359.852 513.639 320.509 508.576C294.684 505.25 293.944 505.4 293.944 513.893C293.945 526.857 323.827 582.064 342.135 602.92C376.405 641.96 422.077 662.367 500.56 673.704C565.559 683.096 641.031 702.046 682.72 719.441C703.165 727.977 720.812 734.958 721.93 734.958C726.145 734.955 661.822 676.931 629.11 651.229C531.442 574.495 507.096 550.435 487.21 511.008ZM1377.9 500.266C1360.49 495.013 1360.1 495.1 1353.78 505.436C1320.94 559.156 1308.01 572.518 1230.36 632.979C1183.68 669.319 1114.72 730.564 1117.42 733.276C1118.12 733.979 1135.46 727.799 1155.95 719.544C1197.85 702.67 1274.32 683.459 1338.33 673.735C1435.54 658.965 1484.86 630.173 1520.76 567.242C1537.24 538.36 1547.8 511.075 1543.99 507.251C1542.76 506.02 1525.9 507.049 1506.52 509.539C1480.76 512.854 1461.12 512.934 1433.45 509.84C1412.63 507.512 1387.64 503.206 1377.9 500.266Z" fill="white"/>
</svg>
